<svg xmlns="http://www.w3.org/2000/svg" width="50" height="50" viewBox="0 0 50 50"><defs><style>.a{fill:#fff;}.b{fill:#1a4e89;}</style></defs><circle class="a" cx="25" cy="25" r="25"/><path class="b" d="M33.8,20.725a1.5,1.5,0,1,0,1.5,1.5A1.5,1.5,0,0,0,33.8,20.725Zm-6.712,1.933a6.336,6.336,0,1,0,6.336,6.336A6.348,6.348,0,0,0,27.087,22.658Zm0,10.417a4.054,4.054,0,1,1,4.054-4.054A4.05,4.05,0,0,1,27.087,33.075Zm12.806-9.343A7.734,7.734,0,0,0,32.161,16H21.932A7.734,7.734,0,0,0,14.2,23.732V33.961a7.734,7.734,0,0,0,7.732,7.732h10.2a7.734,7.734,0,0,0,7.732-7.732V23.732Zm-2.443,10.2a5.328,5.328,0,0,1-5.316,5.316h-10.2a5.328,5.328,0,0,1-5.316-5.316v-10.2a5.294,5.294,0,0,1,5.316-5.316h10.2a5.328,5.328,0,0,1,5.316,5.316Z" transform="translate(-2.2 -4)"/></svg>