<svg xmlns="http://www.w3.org/2000/svg" width="25" height="25" viewBox="0 0 25 25"><circle cx="12.5" cy="12.5" r="12.5" fill="#1a4e89"/><path d="M24,18.363a.752.752,0,1,0,.752.752A.75.75,0,0,0,24,18.363Zm-3.356.967A3.168,3.168,0,1,0,23.811,22.5,3.174,3.174,0,0,0,20.643,19.329Zm0,5.208a2.027,2.027,0,1,1,2.027-2.027A2.025,2.025,0,0,1,20.643,24.538Zm6.4-4.671A3.867,3.867,0,0,0,23.18,16H18.066A3.867,3.867,0,0,0,14.2,19.866V24.98a3.867,3.867,0,0,0,3.866,3.866h5.1a3.867,3.867,0,0,0,3.866-3.866V19.866Zm-1.222,5.1a2.664,2.664,0,0,1-2.658,2.658h-5.1a2.664,2.664,0,0,1-2.658-2.658v-5.1a2.647,2.647,0,0,1,2.658-2.658h5.1a2.664,2.664,0,0,1,2.658,2.658Z" transform="translate(-8.2 -10)" fill="#fff"/></svg>