<svg xmlns="http://www.w3.org/2000/svg" width="25" height="25" viewBox="0 0 25 25"><circle cx="12.5" cy="12.5" r="12.5" fill="#1a4e89"/><g transform="translate(6 6)"><path d="M35.931,51.185v4.731a.22.22,0,0,1-.216.216h-2.44a.22.22,0,0,1-.216-.216v-4.4c0-1.162-.415-1.959-1.461-1.959A1.581,1.581,0,0,0,30.12,50.6a1.817,1.817,0,0,0-.1.7v4.615a.22.22,0,0,1-.216.216H27.381a.22.22,0,0,1-.216-.216c0-1.179.033-6.873,0-8.2a.22.22,0,0,1,.216-.216h2.44a.22.22,0,0,1,.216.216v1.013c0,.017-.017.017-.017.033h.017v-.033a2.865,2.865,0,0,1,2.59-1.428c1.892,0,3.3,1.245,3.3,3.885ZM22.916,56.148h2.44a.22.22,0,0,0,.216-.216V47.715a.22.22,0,0,0-.216-.216h-2.44a.22.22,0,0,0-.216.216v8.217A.232.232,0,0,0,22.916,56.148Z" transform="translate(-22.517 -43.332)" fill="#fff"/><circle cx="1.544" cy="1.544" r="1.544" fill="#fff"/></g></svg>