<svg xmlns="http://www.w3.org/2000/svg" width="50" height="50" viewBox="0 0 50 50"><defs><style>.a{fill:#fff;}.b{fill:#1a4e89;}</style></defs><circle class="a" cx="25" cy="25" r="25"/><g transform="translate(-9.6 -11.4)"><path class="b" d="M49.161,55.069v9.462a.439.439,0,0,1-.432.432H43.849a.439.439,0,0,1-.432-.432v-8.8c0-2.324-.83-3.918-2.922-3.918a3.161,3.161,0,0,0-2.955,2.092,3.634,3.634,0,0,0-.2,1.394v9.23a.439.439,0,0,1-.432.432H32.063a.439.439,0,0,1-.432-.432c0-2.357.066-13.745,0-16.4a.439.439,0,0,1,.432-.432h4.881a.439.439,0,0,1,.432.432v2.025c0,.033-.033.033-.033.066h.033v-.066A5.73,5.73,0,0,1,42.554,47.3c3.785,0,6.607,2.49,6.607,7.769ZM23.132,65h4.881a.439.439,0,0,0,.432-.432V48.13a.439.439,0,0,0-.432-.432H23.132a.439.439,0,0,0-.432.432V64.565A.464.464,0,0,0,23.132,65Z" transform="translate(-0.735 -15.965)"/><circle class="b" cx="3.088" cy="3.088" r="3.088" transform="translate(21.6 23.4)"/></g></svg>