<svg xmlns="http://www.w3.org/2000/svg" xmlns:xlink="http://www.w3.org/1999/xlink" width="621.051" height="325.881"
    viewBox="0 0 621.051 325.881">
    <defs>
        <style>
            .a,
            .d,
            .e,
            .k {
                opacity: 0.1;
            }

            .b {
                fill: #3f3d56;
            }

            .c,
            .e {
                fill: #1a4e89;
            }

            .f {
                fill: #fff;
            }

            .g {
                fill: url(#a);
            }

            .h {
                fill: #be6f72;
            }

            .i {
                fill: #ff6f61;
            }

            .j {
                fill: #8fffff;
            }

            .k {
                fill: none;
                stroke: #000;
                stroke-miterlimit: 10;
            }

            .l {
                fill: url(#b);
            }

            .m {
                fill: #2f2e41;
            }

            .n {
                fill: #fbbebe;
            }

            .o {
                fill: #f86d70;
            }
        </style>
        <linearGradient id="a" x1="0.5" y1="1" x2="0.5" gradientUnits="objectBoundingBox">
            <stop offset="0" stop-color="gray" stop-opacity="0.251" />
            <stop offset="0.54" stop-color="gray" stop-opacity="0.122" />
            <stop offset="1" stop-color="gray" stop-opacity="0.102" />
        </linearGradient>
        <linearGradient id="b" x1="0.5" y1="1" x2="0.5" y2="-0.001" xlink:href="#a" />
    </defs>
    <g transform="translate(0 0.359)">
        <g class="a" transform="translate(240.912 22.307)">
            <ellipse class="b" cx="6.449" cy="8.443" rx="6.449" ry="8.443" transform="translate(24.304 174.29)" />
            <path class="b"
                d="M531.576,450.6a10.2,10.2,0,0,0,1.349-5.162c0-4.664-2.89-8.443-6.454-8.443S520,440.781,520,445.444a10.2,10.2,0,0,0,1.349,5.162,10.545,10.545,0,0,0,0,10.319,10.545,10.545,0,0,0,0,10.319A10.164,10.164,0,0,0,520,476.406c0,4.658,2.89,8.443,6.448,8.443s6.454-3.785,6.454-8.443a10.166,10.166,0,0,0-1.349-5.162,10.545,10.545,0,0,0,0-10.319,10.545,10.545,0,0,0,0-10.319Z"
                transform="translate(-495.718 -303.986)" />
            <ellipse class="b" cx="6.449" cy="8.443" rx="6.449" ry="8.443" transform="translate(24.304 122.697)" />
            <ellipse class="b" cx="6.449" cy="8.443" rx="6.449" ry="8.443" transform="translate(24.304 112.378)" />
            <path class="c"
                d="M483.762,252.47a30.075,30.075,0,0,1-2.4-3.536l16.943-2.782-18.326.136a30.951,30.951,0,0,1-.567-24.479L504,234.564l-22.666-16.671a30.9,30.9,0,1,1,51,34.566,30.9,30.9,0,0,1,3.525,5.633l-22,11.458,23.454-7.871a30.9,30.9,0,0,1-4.981,29.013,30.894,30.894,0,1,1-48.562,0,30.894,30.894,0,0,1,0-38.2Z"
                transform="translate(-477.149 -202.271)" />
            <path class="d"
                d="M538.938,324.222a30.752,30.752,0,0,1-6.613,19.1,30.894,30.894,0,1,1-48.562,0C479.62,338.065,538.938,320.754,538.938,324.222Z"
                transform="translate(-477.149 -254.921)" />
        </g>
        <g class="a" transform="translate(323.967 50.545)">
            <ellipse class="b" cx="4.822" cy="6.307" rx="4.822" ry="6.307" transform="translate(18.161 130.136)" />
            <path class="b"
                d="M664.4,437.486a7.61,7.61,0,0,0,1-3.853c0-3.485-2.159-6.312-4.817-6.312s-4.822,2.833-4.822,6.313a7.555,7.555,0,0,0,1.009,3.853,7.876,7.876,0,0,0,0,7.712,7.877,7.877,0,0,0,0,7.712,7.554,7.554,0,0,0-1.009,3.853c0,3.485,2.159,6.313,4.822,6.313s4.817-2.833,4.817-6.313a7.61,7.61,0,0,0-1-3.853,7.933,7.933,0,0,0,0-7.712A7.933,7.933,0,0,0,664.4,437.486Z"
                transform="translate(-637.604 -328.033)" />
            <ellipse class="b" cx="4.822" cy="6.307" rx="4.822" ry="6.307" transform="translate(18.161 91.581)" />
            <ellipse class="b" cx="4.822" cy="6.307" rx="4.822" ry="6.307" transform="translate(18.161 83.869)" />
            <path class="c"
                d="M628.661,289.506a22.091,22.091,0,0,1-1.8-2.641l12.665-2.08-13.7.1a23.142,23.142,0,0,1-.442-18.3l18.377,9.537L626.82,263.661A23.091,23.091,0,1,1,664.95,289.5a23.35,23.35,0,0,1,2.635,4.21l-16.433,8.539,17.527-5.882a23.1,23.1,0,0,1-3.723,21.68,23.085,23.085,0,1,1-36.266,0,23.085,23.085,0,0,1,0-28.548Z"
                transform="translate(-623.72 -252.103)" />
            <path class="d"
                d="M669.9,343.04a22.989,22.989,0,0,1-4.941,14.274,23.085,23.085,0,1,1-36.266,0C625.587,353.387,669.9,340.451,669.9,343.04Z"
                transform="translate(-623.729 -291.363)" />
        </g>
        <g class="a" transform="translate(557.326 -0.359)">
            <ellipse class="b" cx="6.449" cy="8.443" rx="6.449" ry="8.443" transform="translate(24.739 174.29)" />
            <path class="b"
                d="M1080.538,410.6a10.2,10.2,0,0,1-1.349-5.162c0-4.664,2.89-8.443,6.454-8.443s6.448,3.78,6.448,8.443a10.2,10.2,0,0,1-1.349,5.162,10.545,10.545,0,0,1,0,10.319,10.546,10.546,0,0,1,0,10.319,10.166,10.166,0,0,1,1.349,5.162c0,4.658-2.89,8.443-6.448,8.443s-6.454-3.785-6.454-8.443a10.164,10.164,0,0,1,1.349-5.162,10.546,10.546,0,0,1,0-10.319A10.545,10.545,0,0,1,1080.538,410.6Z"
                transform="translate(-1054.456 -263.986)" />
            <ellipse class="b" cx="6.449" cy="8.443" rx="6.449" ry="8.443" transform="translate(24.739 122.697)" />
            <ellipse class="b" cx="6.449" cy="8.443" rx="6.449" ry="8.443" transform="translate(24.739 112.378)" />
            <path class="c"
                d="M1090.869,212.47a30.076,30.076,0,0,0,2.4-3.536l-16.943-2.782,18.326.136a30.951,30.951,0,0,0,.567-24.479l-24.587,12.755,22.666-16.671a30.9,30.9,0,1,0-51,34.566,30.907,30.907,0,0,0-3.525,5.633l22,11.458-23.454-7.871a30.9,30.9,0,0,0,4.981,29.013,30.894,30.894,0,1,0,48.562,0,30.894,30.894,0,0,0,0-38.2Z"
                transform="translate(-1035.541 -162.271)" />
            <path class="d"
                d="M1035.81,284.222a30.753,30.753,0,0,0,6.613,19.1,30.894,30.894,0,1,0,48.562,0C1095.127,298.065,1035.81,280.754,1035.81,284.222Z"
                transform="translate(-1035.657 -214.921)" />
        </g>
        <g class="a" transform="translate(503.05 47.145)">
            <ellipse class="b" cx="4.822" cy="6.307" rx="4.822" ry="6.307" transform="translate(18.39 130.136)" />
            <path class="b"
                d="M973.233,431.486a7.61,7.61,0,0,1-1-3.853c0-3.485,2.159-6.312,4.817-6.312s4.822,2.833,4.822,6.313a7.553,7.553,0,0,1-1.009,3.853,7.876,7.876,0,0,1,0,7.712,7.876,7.876,0,0,1,0,7.712,7.553,7.553,0,0,1,1.009,3.853c0,3.485-2.159,6.313-4.822,6.313s-4.817-2.833-4.817-6.312a7.61,7.61,0,0,1,1-3.853,7.933,7.933,0,0,1,0-7.712,7.933,7.933,0,0,1,0-7.712Z"
                transform="translate(-953.828 -322.033)" />
            <ellipse class="b" cx="4.822" cy="6.307" rx="4.822" ry="6.307" transform="translate(18.39 91.581)" />
            <ellipse class="b" cx="4.822" cy="6.307" rx="4.822" ry="6.307" transform="translate(18.39 83.869)" />
            <path class="c"
                d="M981.011,283.506a22.086,22.086,0,0,0,1.8-2.641l-12.665-2.08,13.7.1a23.142,23.142,0,0,0,.442-18.3L965.9,270.127l16.949-12.466a23.091,23.091,0,1,0-38.13,25.839,23.348,23.348,0,0,0-2.635,4.21l16.433,8.54-17.493-5.876a23.1,23.1,0,0,0,3.723,21.68,23.085,23.085,0,1,0,36.266,0,23.085,23.085,0,0,0,0-28.548Z"
                transform="translate(-939.756 -246.103)" />
            <path class="d"
                d="M939.791,337.04a22.99,22.99,0,0,0,4.941,14.274,23.085,23.085,0,1,0,36.266,0C984.1,347.387,939.791,334.451,939.791,337.04Z"
                transform="translate(-939.766 -285.363)" />
        </g>
        <g class="a" transform="translate(4.142 -0.264)">
            <ellipse class="b" cx="6.449" cy="8.443" rx="6.449" ry="8.443" transform="translate(24.31 174.195)" />
            <path class="b"
                d="M113.758,410.6a10.2,10.2,0,0,0,1.349-5.162c0-4.664-2.89-8.443-6.449-8.443s-6.449,3.78-6.449,8.443a10.2,10.2,0,0,0,1.343,5.162,10.579,10.579,0,0,0,0,10.319,10.579,10.579,0,0,0,0,10.319,10.16,10.16,0,0,0-1.343,5.162c0,4.658,2.884,8.443,6.449,8.443s6.466-3.774,6.466-8.432a10.166,10.166,0,0,0-1.349-5.162,10.545,10.545,0,0,0,0-10.319,10.545,10.545,0,0,0,0-10.319Z"
                transform="translate(-77.9 -264.081)" />
            <ellipse class="b" cx="6.449" cy="8.443" rx="6.449" ry="8.443" transform="translate(24.31 122.602)" />
            <ellipse class="b" cx="6.449" cy="8.443" rx="6.449" ry="8.443" transform="translate(24.31 112.283)" />
            <path class="c"
                d="M65.934,212.543a30.785,30.785,0,0,1-2.4-3.536l16.949-2.782-18.343.164a30.951,30.951,0,0,1-.567-24.479l24.593,12.755L63.5,177.994a30.894,30.894,0,1,1,51,34.566,30.907,30.907,0,0,1,3.525,5.633L96.012,229.622l23.459-7.871a30.934,30.934,0,0,1-4.987,29.013,30.894,30.894,0,1,1-48.562,0,30.894,30.894,0,0,1,0-38.2Z"
                transform="translate(-59.309 -162.439)" />
            <path class="d"
                d="M121.1,284.222a30.752,30.752,0,0,1-6.613,19.1,30.894,30.894,0,1,1-48.562,0C61.78,298.065,121.1,280.754,121.1,284.222Z"
                transform="translate(-59.309 -215.016)" />
        </g>
        <g class="a" transform="translate(74.164 47.145)">
            <ellipse class="b" cx="4.822" cy="6.307" rx="4.822" ry="6.307" transform="translate(18.161 130.136)" />
            <path class="b"
                d="M223.566,431.486a7.61,7.61,0,0,0,1-3.853c0-3.485-2.153-6.312-4.817-6.312s-4.822,2.833-4.822,6.313a7.61,7.61,0,0,0,1.009,3.853,7.876,7.876,0,0,0,0,7.712,7.877,7.877,0,0,0,0,7.712,7.61,7.61,0,0,0-1.009,3.853c0,3.485,2.159,6.313,4.822,6.313s4.817-2.833,4.817-6.312a7.61,7.61,0,0,0-1-3.853,7.933,7.933,0,0,0,0-7.712,7.933,7.933,0,0,0,0-7.712Z"
                transform="translate(-196.769 -322.033)" />
            <ellipse class="b" cx="4.822" cy="6.307" rx="4.822" ry="6.307" transform="translate(18.161 91.581)" />
            <ellipse class="b" cx="4.822" cy="6.307" rx="4.822" ry="6.307" transform="translate(18.161 83.869)" />
            <path class="c"
                d="M187.821,283.506a22.784,22.784,0,0,1-1.8-2.641l12.665-2.08-13.7.1a23.142,23.142,0,0,1-.442-18.3l18.377,9.537L185.98,257.661A23.091,23.091,0,1,1,224.11,283.5a22.735,22.735,0,0,1,2.635,4.21l-16.433,8.539,17.527-5.882a23.1,23.1,0,0,1-3.723,21.68,23.085,23.085,0,1,1-36.266,0,23.085,23.085,0,0,1,0-28.548Z"
                transform="translate(-182.88 -246.103)" />
            <path class="d"
                d="M229.059,337.04a22.989,22.989,0,0,1-4.941,14.274,23.085,23.085,0,1,1-36.266,0C184.736,347.387,229.059,334.451,229.059,337.04Z"
                transform="translate(-182.889 -285.363)" />
        </g>
        <ellipse class="e" cx="310.526" cy="5.021" rx="310.526" ry="5.021" transform="translate(0 274.257)" />
        <ellipse class="e" cx="310.526" cy="5.021" rx="310.526" ry="5.021" transform="translate(0 315.481)" />
        <ellipse class="e" cx="310.526" cy="5.021" rx="310.526" ry="5.021" transform="translate(0 188.223)" />
        <ellipse class="e" cx="310.526" cy="5.021" rx="310.526" ry="5.021" transform="translate(0 231.237)" />
        <path class="e"
            d="M837.03,262.444a10.37,10.37,0,0,0-6.006.657,8.868,8.868,0,0,1-7.219,0,10.132,10.132,0,0,0-8.5.164,5.236,5.236,0,0,1-2.442.612c-3.445,0-6.307-3.468-6.9-8.041a6.731,6.731,0,0,0,1.7-1.853c2.017-3.253,5.14-5.344,8.653-5.344s6.6,2.063,8.613,5.281a6.618,6.618,0,0,0,5.718,3.139h.091C833.505,257.032,835.879,259.231,837.03,262.444Z"
            transform="translate(-378.727 -200.058)" />
        <path class="e"
            d="M847.51,238.294l-5.565,3.525,3.4-6.143a5.5,5.5,0,0,0-3.366-1.2h-.091a6.43,6.43,0,0,1-1.133-.085l-1.915,1.2.81-1.473a6.681,6.681,0,0,1-3.3-2.5l-3.4,2.142,2.131-3.876a9.874,9.874,0,0,0-7.559-3.819c-3.513,0-6.635,2.085-8.658,5.338a6.466,6.466,0,0,1-5.718,3.083h-.187c-3.876,0-7.015,4.392-7.015,9.809s3.139,9.814,7.015,9.814a5.32,5.32,0,0,0,2.442-.612,10.12,10.12,0,0,1,8.5-.17,8.811,8.811,0,0,0,7.219,0,10.154,10.154,0,0,1,8.42.164,5.27,5.27,0,0,0,2.414.6c3.876,0,7.015-4.4,7.015-9.814A12.426,12.426,0,0,0,847.51,238.294Z"
            transform="translate(-378.718 -190.273)" />
        <path class="e"
            d="M426.637,260.2a7.276,7.276,0,0,0-4.21.459,6.188,6.188,0,0,1-5.049,0,7.072,7.072,0,0,0-5.944.119,3.751,3.751,0,0,1-1.7.425c-2.408,0-4.414-2.425-4.834-5.627a4.715,4.715,0,0,0,1.207-1.3,6.771,6.771,0,0,1,12.087-.045,4.641,4.641,0,0,0,4.006,2.2h.062C424.166,256.422,425.826,257.963,426.637,260.2Z"
            transform="translate(-204.928 -200.881)" />
        <path class="e"
            d="M433.966,243.308l-3.893,2.471,2.363-4.3a3.825,3.825,0,0,0-2.352-.839h-.068a4.245,4.245,0,0,1-.8-.062l-1.32.839.567-1.031a4.7,4.7,0,0,1-2.312-1.751l-2.363,1.5,1.5-2.709a6.919,6.919,0,0,0-5.293-2.68,7.248,7.248,0,0,0-6.058,3.74,4.533,4.533,0,0,1-4.006,2.159h-.13c-2.714,0-4.913,3.071-4.913,6.868s2.2,6.868,4.913,6.868a3.684,3.684,0,0,0,1.7-.431,7.083,7.083,0,0,1,5.939-.113,6.086,6.086,0,0,0,5.055.034,7.106,7.106,0,0,1,5.893.113,3.672,3.672,0,0,0,1.7.419c2.709,0,4.907-3.077,4.907-6.868A8.687,8.687,0,0,0,433.966,243.308Z"
            transform="translate(-204.92 -194.034)" />
        <path class="e"
            d="M321.59,338.611a7.264,7.264,0,0,1,4.2.459,6.2,6.2,0,0,0,5.055,0,7.094,7.094,0,0,1,5.944.113,3.666,3.666,0,0,0,1.7.431c2.408,0,4.414-2.431,4.828-5.633a4.619,4.619,0,0,1-1.2-1.3,6.778,6.778,0,0,0-12.092-.04,4.641,4.641,0,0,1-4,2.2h-.062C324.055,334.855,322.389,336.39,321.59,338.611Z"
            transform="translate(-168.826 -234.86)" />
        <path class="e"
            d="M307.862,321.752l3.9,2.471-2.369-4.3a3.847,3.847,0,0,1,2.357-.844h.062a4.831,4.831,0,0,0,.81-.057l1.32.833-.567-1.026a4.7,4.7,0,0,0,2.306-1.751l2.363,1.5-1.473-2.714a6.913,6.913,0,0,1,5.293-2.675,7.255,7.255,0,0,1,6.058,3.74,4.533,4.533,0,0,0,4,2.159h.136c2.709,0,4.907,3.077,4.907,6.868s-2.2,6.868-4.907,6.868a3.678,3.678,0,0,1-1.7-.425,7.072,7.072,0,0,0-5.944-.119,6.154,6.154,0,0,1-2.539.567,6.233,6.233,0,0,1-2.516-.533,7.094,7.094,0,0,0-5.888.113,3.672,3.672,0,0,1-1.7.419c-2.714,0-4.913-3.071-4.913-6.868A8.75,8.75,0,0,1,307.862,321.752Z"
            transform="translate(-162.442 -228.03)" />
        <circle class="c" cx="56.643" cy="56.643" r="56.643" transform="translate(385.194 78.167)" />
        <path class="f"
            d="M836.3,395.674a42.916,42.916,0,0,0-9.066-6.058c-2.714-1.3-3.712-1.281-5.633.108-1.6,1.133-2.635,2.227-4.471,1.825s-5.474-3.145-8.993-6.653-6.25-7.123-6.641-8.987.686-2.879,1.83-4.477c1.383-1.921,1.422-2.918.108-5.633a43.453,43.453,0,0,0-6.063-9.066c-1.989-1.983-2.42-1.547-3.508-1.133a20.291,20.291,0,0,0-3.213,1.7,9.7,9.7,0,0,0-3.853,4.074c-.776,1.655-1.655,4.726,2.862,12.767a71.223,71.223,0,0,0,12.523,16.7h0a71.331,71.331,0,0,0,16.756,12.546c8.035,4.533,11.112,3.632,12.767,2.862a9.513,9.513,0,0,0,4.068-3.853,20.013,20.013,0,0,0,1.7-3.213C837.849,398.094,838.291,397.652,836.3,395.674Z"
            transform="translate(-370.151 -246.256)" />
        <path class="d"
            d="M788.374,300.86a56.665,56.665,0,1,0,56.637,56.646A56.665,56.665,0,0,0,788.374,300.86Zm0,105.749A49.112,49.112,0,1,1,837.485,357.5a49.112,49.112,0,0,1-49.112,49.112Z"
            transform="translate(-346.537 -222.687)" />
        <circle class="c" cx="56.643" cy="56.643" r="56.643" transform="translate(255.062 164.202)" />
        <path class="f"
            d="M609.229,522.348,592.269,539.6a.306.306,0,0,0,0,.442l11.9,12.653a2.047,2.047,0,1,1-2.9,2.9l-11.837-12.608a.323.323,0,0,0-.453,0L586.1,545.9a12.676,12.676,0,0,1-9.066,3.814,12.954,12.954,0,0,1-9.225-3.921l-2.771-2.833a.323.323,0,0,0-.453,0l-11.809,12.58a2.048,2.048,0,1,1-2.9-2.9l11.854-12.625a.34.34,0,0,0,0-.442l-16.96-17.255a.312.312,0,0,0-.533.221v34.526a5.055,5.055,0,0,0,5.038,5.038h55.458a5.055,5.055,0,0,0,5.037-5.038v-34.5a.312.312,0,0,0-.544-.221Z"
            transform="translate(-265.311 -318.616)" />
        <path class="f"
            d="M578.493,541.456a8.579,8.579,0,0,0,6.188-2.55l24.7-25.142a4.93,4.93,0,0,0-3.117-1.133h-55.5a4.9,4.9,0,0,0-3.117,1.133l24.706,25.142A8.545,8.545,0,0,0,578.493,541.456Z"
            transform="translate(-266.789 -314.457)" />
        <path class="d"
            d="M557.464,452.69A56.665,56.665,0,1,0,614.1,509.336,56.665,56.665,0,0,0,557.464,452.69Zm0,105.749a49.112,49.112,0,1,1,49.112-49.112A49.112,49.112,0,0,1,557.464,558.439Z"
            transform="translate(-246.473 -288.482)" />
        <path class="c" d="M56.643,0A56.643,56.643,0,1,1,0,56.643,56.643,56.643,0,0,1,56.643,0Z"
            transform="translate(120.635 121.902)" />
        <path class="f" d="M347.581,430.16,325,482.258l2.108,2.108,20.479-9.032,20.479,9.032,2.108-2.108Z"
            transform="translate(-170.304 -278.719)" />
        <path class="d"
            d="M557.464,452.69A56.665,56.665,0,1,0,614.1,509.336,56.665,56.665,0,0,0,557.464,452.69Zm0,105.749a49.112,49.112,0,1,1,49.112-49.112A49.112,49.112,0,0,1,557.464,558.439Z"
            transform="translate(-380.473 -330.482)" />
        <path class="g"
            d="M820.245,585.064q-.771-1.881-1.581-3.751a11.135,11.135,0,0,0-1.932-3.338,3.537,3.537,0,0,0-1.133-.85,4.833,4.833,0,0,0-1.479-.295,11.806,11.806,0,0,0-2.323-.062c-.3-.091-.64-.21-.975-.346a8.092,8.092,0,0,0,6.029-7.508v-.346a8.075,8.075,0,0,0-8.041-8.109,7.933,7.933,0,0,0-4.221,1.207,7.576,7.576,0,0,0-8.5,4.1,9.367,9.367,0,0,0-2.89,6.97v.357c.147,4.4,2.992,7.933,6.584,8.29a3.774,3.774,0,0,0-1.043.7c-1.1,1.06-1.281,2.743-1.4,4.273l-.085,1.133-1.9.68a.351.351,0,0,0-.085.618l1.819,1.3v.323a1.416,1.416,0,0,0,.034.368,2.6,2.6,0,0,0-.7,1,4.634,4.634,0,0,0-.164,1.836l.068,1.581a12.413,12.413,0,0,0,.482,3.519c.238.7,1.269,2.4,2.012,2.408a73.319,73.319,0,0,0-.867,9.69c-.085.085.153.164.567.232.408,3.128,1.74,11.9,4.1,15.759a33.2,33.2,0,0,1,.89,3.831s.674,8.336,1.564,10.812a55.051,55.051,0,0,1,1.524,8.817.867.867,0,0,0-.629.646c-.448,1.349-3.349,3.4-3.349,3.4a14.032,14.032,0,0,0-2.5,1.6c-.912.822-.878,1.564,3.173,1.1,7.82-.9,9.157-3.4,9.157-3.4s-.125-.419-.312-.963a10.458,10.458,0,0,0-1.026-2.42c-.113-.108-.227.074-.363.357a48.519,48.519,0,0,1-.533-10.942,17.752,17.752,0,0,0-.9-6.534,12.373,12.373,0,0,1,0-4.278c.448-1.8-1.785-10.591-1.785-10.591l-1.281-6.471a1.859,1.859,0,0,1,.357.754l.034.13.034.187a.351.351,0,0,0,.091.176c.873,3.627,3.264,13.673,3.264,15.147,0,1.8,2.233,6.307,2.233,6.307s.89,7.435,2.454,10.358c1.19,2.227,1.218,5.491,1.162,6.93h0a6.419,6.419,0,0,1-.714,2.3,5.474,5.474,0,0,0-.844,1.468l-.051.108s-.669,1.354-.221,1.581a10.976,10.976,0,0,0,5.361.674s.9-1.133.9-1.575a7.1,7.1,0,0,0-.1-.8c-.164-1.065-.47-2.743-.476-2.76a7.733,7.733,0,0,0-.567-2.743l-.227-6.307a29.113,29.113,0,0,0-1.564-12.619s-1.133-4.052-.89-5.179-.448-13.067-.448-13.067l-.068-.17a12.9,12.9,0,0,1,.068-2.533,33.651,33.651,0,0,0-.9-8.556,7.424,7.424,0,0,1-.317-1.864c.051-.47.2-1.847.414-3.559a63.949,63.949,0,0,0,6.585-.567.822.822,0,0,0,.567-.227.793.793,0,0,0,.13-.459C822.772,591.5,821.531,588.2,820.245,585.064Zm-4.494,7.145c.232-1.615.482-3.179.731-4.341l.034.1a31.513,31.513,0,0,1,1.077,3.57A12.137,12.137,0,0,1,815.751,592.21Z"
            transform="translate(-373.195 -335.184)" />
        <path class="h"
            d="M802.37,648.342s1.337,12.03,4.233,16.7a32.414,32.414,0,0,1,.89,3.785s.669,8.239,1.558,10.687,1.558,9.134,1.558,9.134,3.117,3.559,4.233.669a46.929,46.929,0,0,1-.669-11.582,17.442,17.442,0,0,0-.89-6.46,12.083,12.083,0,0,1,0-4.227c.442-1.785-1.785-10.466-1.785-10.466l-1.779-8.687Z"
            transform="translate(-377.171 -373.076)" />
        <path class="i"
            d="M817.359,722.348s-1.337,2.448-9.129,3.338c-4.046.459-4.074-.272-3.162-1.088a14.105,14.105,0,0,1,2.493-1.587s2.9-2,3.338-3.338,2.006-.221,2.006-.221c2.227,3.338,2.675-.9,3.117-.448a10.051,10.051,0,0,1,1.026,2.386C817.234,721.928,817.359,722.348,817.359,722.348Z"
            transform="translate(-378.129 -403.874)" />
        <path class="d"
            d="M817.359,724.2s-1.337,2.448-9.129,3.338c-4.046.459-4.074-.272-3.162-1.088.635.4,1.915.567,4.494-.47,3.712-1.519,6.4-2.4,7.485-2.737C817.234,723.778,817.359,724.2,817.359,724.2Z"
            transform="translate(-378.129 -405.724)" />
        <path class="d"
            d="M818.615,677.74a17.445,17.445,0,0,0-.89-6.46,12.076,12.076,0,0,1,0-4.227c.442-1.785-1.785-10.466-1.785-10.466l-1.779-8.687-1.541.091,1.762,8.6s2.227,8.681,1.785,10.466a12.083,12.083,0,0,0,0,4.227,16.933,16.933,0,0,1,.89,6.46,46.926,46.926,0,0,0,.669,11.582,1.95,1.95,0,0,1-.646.918,1.456,1.456,0,0,0,2.2-.918A46.929,46.929,0,0,1,818.615,677.74Z"
            transform="translate(-381.613 -373.076)" />
        <path class="b"
            d="M808.717,562.42a7.933,7.933,0,0,0-4.2,1.2,7.565,7.565,0,0,0-8.5,4.052,9.225,9.225,0,0,0-2.884,6.89c0,4.737,3.19,8.573,7.123,8.573,2.833,0,5.315-2.017,6.454-4.936a7.818,7.818,0,0,0,2.006.261,8.018,8.018,0,1,0,0-16.036Z"
            transform="translate(-373.165 -336.033)" />
        <path class="h"
            d="M825.4,650.65l.669,1.779s.669,11.8.442,12.92.9,5.1.9,5.1a28.507,28.507,0,0,1,1.558,12.466l.221,6.233s.89,2.448.448,2.9-3.8-.4-3.8-.4.448-4.675-1.133-7.57-2.448-10.245-2.448-10.245-2.227-4.454-2.227-6.233-3.564-16.257-3.564-16.257Z"
            transform="translate(-383.277 -374.268)" />
        <path class="b"
            d="M801.567,639.539s.227-8.018,1.133-10.466a16.617,16.617,0,0,0,.992-3.553s13.481,2.437,14.6,1.547a19.344,19.344,0,0,0,.448,3.338,32.021,32.021,0,0,1,.89,8.466c-.244,2.675,0,2.669,0,2.669s-9.134,1.337-9.355,0-.89-1.332-.89-1.332S801.125,639.958,801.567,639.539Z"
            transform="translate(-376.815 -363.378)" />
        <g class="a" transform="translate(424.751 263.689)">
            <path
                d="M808.929,649.909s-5.633-.153-7.333-.459v.459c-.442.442,7.8.669,7.8.669a.566.566,0,0,1,.306.125C809.4,649.909,808.929,649.909,808.929,649.909Z"
                transform="translate(-801.58 -637.437)" />
            <path
                d="M825.324,631.588a19.332,19.332,0,0,1-.448-3.338.958.958,0,0,1-.38.136,11.26,11.26,0,0,0,.38,2.533,35.368,35.368,0,0,1,.89,8.466c-.244,2.675,0,2.669,0,2.669s-7.225,1.06-8.976.351a2.68,2.68,0,0,0,.068.317c.221,1.337,9.355,0,9.355,0s-.227,0,0-2.669A33.1,33.1,0,0,0,825.324,631.588Z"
                transform="translate(-808.171 -628.25)" />
            <path
                d="M808.929,649.909s-5.633-.153-7.333-.459v.459c-.442.442,7.8.669,7.8.669a.566.566,0,0,1,.306.125C809.4,649.909,808.929,649.909,808.929,649.909Z"
                transform="translate(-801.58 -637.437)" />
            <path
                d="M825.324,631.588a19.332,19.332,0,0,1-.448-3.338.958.958,0,0,1-.38.136,11.26,11.26,0,0,0,.38,2.533,35.368,35.368,0,0,1,.89,8.466c-.244,2.675,0,2.669,0,2.669s-7.225,1.06-8.976.351a2.68,2.68,0,0,0,.068.317c.221,1.337,9.355,0,9.355,0s-.227,0,0-2.669A33.1,33.1,0,0,0,825.324,631.588Z"
                transform="translate(-808.171 -628.25)" />
        </g>
        <path class="h"
            d="M815.234,585.429a2.952,2.952,0,0,0,.85,1.1,1.9,1.9,0,0,0,.8.346c-.5.289-1.043.5-1.541.793a27.4,27.4,0,0,0-2.267,1.7,4.612,4.612,0,0,1-2.6,1.009,3.185,3.185,0,0,0,.363-3.168,2.959,2.959,0,0,1-.4-1.1,1.975,1.975,0,0,1,1.094-1.473c.425-.289.861-.567,1.3-.844.346-.215.867-.669,1.3-.652s.487.4.567.8A6.284,6.284,0,0,0,815.234,585.429Z"
            transform="translate(-380.668 -345.012)" />
        <path class="d"
            d="M815.234,585.429a2.952,2.952,0,0,0,.85,1.1,1.9,1.9,0,0,0,.8.346c-.5.289-1.043.5-1.541.793a27.4,27.4,0,0,0-2.267,1.7,4.612,4.612,0,0,1-2.6,1.009,3.185,3.185,0,0,0,.363-3.168,2.959,2.959,0,0,1-.4-1.1,1.975,1.975,0,0,1,1.094-1.473c.425-.289.861-.567,1.3-.844.346-.215.867-.669,1.3-.652s.487.4.567.8A6.284,6.284,0,0,0,815.234,585.429Z"
            transform="translate(-380.668 -345.012)" />
        <circle class="h" cx="5.123" cy="5.123" r="5.123" transform="translate(434.662 243.313)" />
        <path class="i"
            d="M836,725.589c0,.448-.89,1.558-.89,1.558a11.027,11.027,0,0,1-5.344-.669c-.448-.221.221-1.558.221-1.558l.051-.108a5.406,5.406,0,0,1,.844-1.451,6.34,6.34,0,0,0,.708-2.267c1.383-2.267,3.836.98,3.836.98s.312,1.7.476,2.731A7.772,7.772,0,0,1,836,725.589Z"
            transform="translate(-388.974 -404.447)" />
        <path class="d"
            d="M836,729.033c0,.448-.89,1.558-.89,1.558a11.028,11.028,0,0,1-5.344-.669c-.448-.221.221-1.558.221-1.558l.051-.108a10.766,10.766,0,0,0,4.851,1l1.014-1.014C835.955,728.62,836,728.92,836,729.033Z"
            transform="translate(-388.974 -407.891)" />
        <circle class="h" cx="5.009" cy="5.009" r="5.009" transform="translate(424.531 232.733)" />
        <path class="h"
            d="M801.659,599.115c-1.1,1.048-1.281,2.709-1.394,4.222l-.17,2.216a11.187,11.187,0,0,0-.04,1.8c0,.368.091.742.125,1.133s.045.884.051,1.332v3.275a3.865,3.865,0,0,0,.363,1.966,1.337,1.337,0,0,0,1.7.612,1.938,1.938,0,0,0,.7-1.088,16.909,16.909,0,0,0,1.133-4.148c.045-.493.051-.986.1-1.479s.13-1.009.2-1.507c.317-2.085.459-4.193.6-6.3.04-.623.6-3.077-.215-3.349-.4-.13-1.218.278-1.6.414a4.5,4.5,0,0,0-1.558.9Z"
            transform="translate(-376.16 -351.354)" />
        <path class="d"
            d="M801.659,599.115c-1.1,1.048-1.281,2.709-1.394,4.222l-.17,2.216a11.187,11.187,0,0,0-.04,1.8c0,.368.091.742.125,1.133s.045.884.051,1.332v3.275a3.865,3.865,0,0,0,.363,1.966,1.337,1.337,0,0,0,1.7.612,1.938,1.938,0,0,0,.7-1.088,16.909,16.909,0,0,0,1.133-4.148c.045-.493.051-.986.1-1.479s.13-1.009.2-1.507c.317-2.085.459-4.193.6-6.3.04-.623.6-3.077-.215-3.349-.4-.13-1.218.278-1.6.414a4.5,4.5,0,0,0-1.558.9Z"
            transform="translate(-376.16 -351.354)" />
        <path class="j"
            d="M813.967,588.16s-3.785,2.9-6.012,3.564c0,0-1.32,1.507-1.547,1.87s-.68,4.363-1.133,5.259-1.558,2.9,0,4.9a8.489,8.489,0,0,1,.221,2.675c-.221.669-1.031,3.117-.295,3.23s2.969,1.666,4.97,1.224,9.469,1.7,9.469,1.7,1.235-11.475,2.131-13.5l-2.006-.669s-5.565-3.338-2.227-8.46C817.531,589.945,814.4,589.276,813.967,588.16Z"
            transform="translate(-378.081 -347.188)" />
        <path class="b"
            d="M796.731,610.726l4.6,3.258a.34.34,0,0,0,.4,0l1.247-.935a.351.351,0,0,0,0-.533l-3.542-3.145a.34.34,0,0,0-.346-.068l-2.272.816a.346.346,0,0,0-.091.606Z"
            transform="translate(-374.666 -356.342)" />
        <path class="h"
            d="M799.128,622.444a12.33,12.33,0,0,1-.482-3.474l-.068-1.57a4.532,4.532,0,0,1,.164-1.813,2.964,2.964,0,0,1,1.91-1.672,6.6,6.6,0,0,1,2.6-.187.668.668,0,0,1,.334.091.623.623,0,0,1,.181.306,2.052,2.052,0,0,1,.1,1.638,1.7,1.7,0,0,1-.521.538c-.618.442-1.337.737-1.921,1.218a.7.7,0,0,0-.261.329.765.765,0,0,0,0,.357,5.709,5.709,0,0,0,.295.912.9.9,0,0,0,.255.385c.108.091.249.125.363.21.244.2.754.459.725.771a25.405,25.405,0,0,1-1.031,3.525C801.264,626.2,799.457,623.4,799.128,622.444Z"
            transform="translate(-375.515 -358.245)" />
        <g class="a" transform="translate(430.645 251.552)">
            <path d="M812.1,628.209h-.125a3.815,3.815,0,0,0,1.456,0h.142a5.1,5.1,0,0,0-1.473,0Z"
                transform="translate(-811.98 -616.071)" />
            <path d="M831.157,606.83c-.8,1.8-1.978,11.526-2.187,13.458.782.2,1.3.351,1.3.351s1.224-11.446,2.119-13.475Z"
                transform="translate(-819.343 -606.83)" />
        </g>
        <path class="h"
            d="M821.264,596.938a1.7,1.7,0,0,0,.731,1.1,9.8,9.8,0,0,1,1.3,1.315,9.308,9.308,0,0,1,1.286,2.578,31.583,31.583,0,0,1,1.071,3.525c-2.833,1.315-6.052,1.252-9.066,2.119a7.236,7.236,0,0,0-3.4,2.012,4.686,4.686,0,0,0-1.252,3.689.482.482,0,0,0,.068.221.476.476,0,0,0,.4.159,3.4,3.4,0,0,0,2.08-.714,9.9,9.9,0,0,0,1.592-1.564,2.561,2.561,0,0,1,1.133-.839,18.547,18.547,0,0,1,5.1-.5,64.273,64.273,0,0,0,7.6-.6.612.612,0,0,0,.68-.68c.249-3.343-.992-6.607-2.267-9.707q-.765-1.864-1.575-3.712a10.993,10.993,0,0,0-1.927-3.3,3.4,3.4,0,0,0-1.133-.839,4.794,4.794,0,0,0-1.519-.283,10.767,10.767,0,0,0-2.488-.045,5.307,5.307,0,0,0-.238,1.286,11.144,11.144,0,0,0,1.371,4.346C820.89,596.723,821.134,596.734,821.264,596.938Z"
            transform="translate(-381.304 -348.345)" />
        <path class="k"
            d="M811.976,606.67a4.153,4.153,0,0,0-.567,2.165,2.916,2.916,0,0,0,.142.884,2.867,2.867,0,0,0,1.808,1.7"
            transform="translate(-381.088 -355.209)" />
        <path class="b"
            d="M809.656,572.455a2.6,2.6,0,0,0-.822.13,5.433,5.433,0,0,0-4.533-1.915c-2.709,0-4.9,1.4-4.9,3.122s2.193,3.117,4.9,3.117a6.9,6.9,0,0,0,2.941-.623,2.669,2.669,0,1,0,2.4-3.831Z"
            transform="translate(-375.884 -339.608)" />
        <path class="d"
            d="M809.869,578.768a2.663,2.663,0,0,1-2.4-1.513,6.9,6.9,0,0,1-2.941.624c-2.7,0-4.9-1.394-4.9-3.117a1.871,1.871,0,0,1,0-.312,2.113,2.113,0,0,0-.249.98c0,1.7,2.193,3.117,4.9,3.117a6.9,6.9,0,0,0,2.941-.623,2.669,2.669,0,0,0,5.026-.663,2.658,2.658,0,0,1-2.38,1.507Z"
            transform="translate(-375.875 -341.247)" />
        <path class="d"
            d="M796,568.982a7.565,7.565,0,0,1,8.5-4.052,8.012,8.012,0,0,1,12.194,6.154v-.669a8.013,8.013,0,0,0-12.223-6.8,7.565,7.565,0,0,0-8.5,4.052,9.225,9.225,0,0,0-2.884,6.89v.669A9.066,9.066,0,0,1,796,568.982Z"
            transform="translate(-373.148 -336.034)" />
        <path class="l"
            d="M471.9,575.742a5.559,5.559,0,0,0-2.216-4.488,6.516,6.516,0,0,0-5.445-6.392,6.505,6.505,0,0,0-4.335-4.845h0a5.525,5.525,0,0,0-.8-.187h-.958a6.381,6.381,0,0,0-6.165,5.451c-1.989-.459-3.808.136-4.142,1.394a1.7,1.7,0,0,0,.057,1.009,4.385,4.385,0,0,0,2.924,2.369l.193.057.289.074h.062a5.01,5.01,0,0,0-.476,2.148,4.953,4.953,0,0,0,2.669,4.42l-.13.079a1.768,1.768,0,0,0-.431.6,8.986,8.986,0,0,0-.833,2.006c-.142.6-.164,1.224-.34,1.819-.329,1.094-1.167,2.017-1.264,3.156-.045.51.04,1.133-.323,1.462a1.765,1.765,0,0,1-.289.2,2.34,2.34,0,0,0-.629.663,2.2,2.2,0,0,1-.442.635c-.329.244-.867.221-1.026.6s.255.827.159,1.241-.448.493-.7.725a2.522,2.522,0,0,0-.606,1.133,3.717,3.717,0,0,1-3.06-.782,5.719,5.719,0,0,1,.317,1.133,4.965,4.965,0,0,0-1.649-.827,5.207,5.207,0,0,1-1.757-1.3l.941-.13-4.154-6.341-1.23-.255,1.1,2.114a.674.674,0,0,0-.374.448,1.922,1.922,0,0,0-.04.72,12.886,12.886,0,0,0,.283,1.7l.317,1.485c.028.136.062.278.1.414a3.905,3.905,0,0,0-1.23.136,10.7,10.7,0,0,0-2.556-.606,1.416,1.416,0,0,0-.567,0,1.468,1.468,0,0,0-.538.436,17.429,17.429,0,0,0-1.9,2.675c-2.267,3.887-5.219,7.281-8.012,10.795-1.927.782-3.87,1.524-5.814,2.267l-4.182,1.6a6.341,6.341,0,0,1-2.6.567c-.4,0-.89-.085-1.133.255a2.385,2.385,0,0,0-.255.567l-.431.045h0a4.953,4.953,0,0,0-1-1.847.635.635,0,0,0-.47.363c-.1.187-.164.391-.283.567-.221.329-.612.487-.89.765s-.453.708-.759.992a3,3,0,0,1-1.422.567,8.977,8.977,0,0,0-2.227.844,3.586,3.586,0,0,1-.822.38,3.086,3.086,0,0,1-.969.034l-2.21-.164a1.746,1.746,0,0,0-.595.028,1.133,1.133,0,0,0-.7,1.133,1.785,1.785,0,0,0,.7,1.218,4.5,4.5,0,0,0,1.258.652,36.916,36.916,0,0,0,5.893,1.745v.448a10.058,10.058,0,0,0,4.533,1.077.7.7,0,0,0,.34-.062.748.748,0,0,0,.283-.442,18.228,18.228,0,0,0,.884-4.341h0a2.267,2.267,0,0,0,.8-.2c.759-.21,1.519.312,2.306.4a6.3,6.3,0,0,0,2.782-.8l.4-.13a4.353,4.353,0,0,1-.918.878c-.38.272-.8.476-1.173.759a8.078,8.078,0,0,1-1,.771,6.264,6.264,0,0,1-.765.295,5.048,5.048,0,0,0-1.094.567,2.216,2.216,0,0,0-.742.725,1.088,1.088,0,0,0-.062,1.02,1.076,1.076,0,0,0,.731.51,3,3,0,0,0,.9,0c1.2-.091,2.4-.2,3.593-.306a9.577,9.577,0,0,0,1.5-.215c.261-.062.521-.147.782-.221a6.98,6.98,0,0,1,1.366-.2,1.133,1.133,0,0,1,.4.04c.278.091.476.374.759.431a1.133,1.133,0,0,0,.567-.074,12.638,12.638,0,0,1,2.658-.283,1.1,1.1,0,0,0,1.031-.459c.181-.363-.147-.946-.295-1.428a4.369,4.369,0,0,1-.125-.941,5.888,5.888,0,0,0-.657-2.233,5.83,5.83,0,0,1-.493-1.02,25.769,25.769,0,0,0,4.89-2.482,8.744,8.744,0,0,1,2.788-1.343,7.582,7.582,0,0,1,3.5.408,79.667,79.667,0,0,1,8.03,2.8c1.252.516,2.5,1.06,3.791,1.451a5.909,5.909,0,0,0,1.349,1.309,6.233,6.233,0,0,0,2.918.8,38.237,38.237,0,0,0,4.108.153,6.93,6.93,0,0,0,3.06-.567,3.146,3.146,0,0,0,.64-.425,2.539,2.539,0,0,0,2.017-.742,4.89,4.89,0,0,0,1.536-2.425c.334-1.292.079-2.833.873-3.865.21-.283.487-.51.7-.793a2.233,2.233,0,0,0,.363-1.309.262.262,0,0,1,.034-.051,4.8,4.8,0,0,0,.34-1.3,7.44,7.44,0,0,1,.368-1.031,31.849,31.849,0,0,0,1.054-3.054,17.841,17.841,0,0,0,.487-2.1c.085-.567.136-1.133.181-1.7a10.559,10.559,0,0,1,.516-2.624,21.352,21.352,0,0,0,1.19-6.279v-.125a4.21,4.21,0,0,0,3.729-4.284,4.47,4.47,0,0,0-.391-1.83,5.666,5.666,0,0,0,.759-2.856Zm-20.275,24.632c.062.221.136.436.21.652-.334-.323-.657-.657-.992-.986.13.045.266.085.391.136a2.108,2.108,0,0,1,.374.2Zm-1.6-1.088c-1.961-1.7-4.227-3.02-6.233-4.669,1.094.538,2.159,1.167,3.213,1.768q1.876,1.071,3.8,2.057a3.111,3.111,0,0,1-.8.844Zm.833-4.284.1-.1v.674l-.527-.181a4.71,4.71,0,0,0,.414-.4Zm-17.243,4.59a16.224,16.224,0,0,0,2.085-2.975,20.027,20.027,0,0,0,3.111,3.474C437.078,599.87,435.344,599.683,433.61,599.592Z"
            transform="translate(-201.039 -334.911)" />
        <path class="m" d="M415.35,438.25l1.235.249,4.21,6.228-1.853.249Z" transform="translate(-179.991 -190.07)" />
        <path class="n"
            d="M414.49,645.413a24.24,24.24,0,0,0,1.235,3.213,30.593,30.593,0,0,0,4.108-1.173,12.945,12.945,0,0,0-.856-1.133,4.227,4.227,0,0,0-1.162-.89,3.2,3.2,0,0,0-1.411,0C415.771,645.413,415.13,645.424,414.49,645.413Z"
            transform="translate(-209.084 -371.971)" />
        <path class="m"
            d="M409.727,645.708a2.561,2.561,0,0,1-1.405-1.6,5.145,5.145,0,0,0-1.071-1.91.612.612,0,0,0-.476.357c-.1.181-.164.385-.278.567-.227.323-.623.482-.907.754s-.453.7-.759.975a3.014,3.014,0,0,1-1.434.567,9.294,9.294,0,0,0-2.267.833,3.907,3.907,0,0,1-.833.374,3.293,3.293,0,0,1-.975,0l-2.233-.159a1.744,1.744,0,0,0-.567,0,1.082,1.082,0,0,0-.708,1.133,1.7,1.7,0,0,0,.708,1.2,4.7,4.7,0,0,0,1.269.646,37.345,37.345,0,0,0,5.984,1.7v.442a10.359,10.359,0,0,0,4.562,1.06.771.771,0,0,0,.34-.057.748.748,0,0,0,.283-.442,17.678,17.678,0,0,0,.935-4.851,3.864,3.864,0,0,0-.1-1.252c-.125-.4.295-.232-.091-.391"
            transform="translate(-200.989 -370.606)" />
        <path class="m"
            d="M462.321,632.189c-6.619.4-13.158-1.541-19.788-1.745a9.662,9.662,0,0,0-2.459.153,12.384,12.384,0,0,0-2.437.946c-3.553,1.655-7.23,3.026-10.9,4.392l-4.222,1.57a6.393,6.393,0,0,1-2.612.567c-.4,0-.9-.085-1.133.249-.686,1.02-.363,2.51.091,3.655.147.368.4.771.793.81a2.307,2.307,0,0,0,.8-.2c.765-.2,1.53.312,2.323.4a6.528,6.528,0,0,0,2.8-.793,24.337,24.337,0,0,1,4.805-.816,21.53,21.53,0,0,0,7.525-3.122,8.782,8.782,0,0,1,2.8-1.326,7.764,7.764,0,0,1,3.53.4,81.014,81.014,0,0,1,8.1,2.754,37.743,37.743,0,0,0,4.227,1.547,15.3,15.3,0,0,0,9.48-.567c1.06-.419,2.21-1.133,2.267-2.3.04-.652-.47-1.224-.8-1.785-.215-.357-.436-.714-.669-1.06C465.715,634.269,464.332,632.07,462.321,632.189Z"
            transform="translate(-210.766 -365.502)" />
        <path class="d"
            d="M462.321,632.189c-6.619.4-13.158-1.541-19.788-1.745a9.662,9.662,0,0,0-2.459.153,12.384,12.384,0,0,0-2.437.946c-3.553,1.655-7.23,3.026-10.9,4.392l-4.222,1.57a6.393,6.393,0,0,1-2.612.567c-.4,0-.9-.085-1.133.249-.686,1.02-.363,2.51.091,3.655.147.368.4.771.793.81a2.307,2.307,0,0,0,.8-.2c.765-.2,1.53.312,2.323.4a6.528,6.528,0,0,0,2.8-.793,24.337,24.337,0,0,1,4.805-.816,21.53,21.53,0,0,0,7.525-3.122,8.782,8.782,0,0,1,2.8-1.326,7.764,7.764,0,0,1,3.53.4,81.014,81.014,0,0,1,8.1,2.754,37.743,37.743,0,0,0,4.227,1.547,15.3,15.3,0,0,0,9.48-.567c1.06-.419,2.21-1.133,2.267-2.3.04-.652-.47-1.224-.8-1.785-.215-.357-.436-.714-.669-1.06C465.715,634.269,464.332,632.07,462.321,632.189Z"
            transform="translate(-210.766 -365.502)" />
        <path class="n"
            d="M436.92,643.893q1.553.527,3.134.975c.567-.969,1.7-1.643,1.944-2.754a.261.261,0,0,0,0-.147.272.272,0,0,0-.119-.108,5.939,5.939,0,0,0-2.459-.72c-.68-.04-.992.669-1.3,1.167C438,642.527,437.2,644,436.92,643.893Z"
            transform="translate(-218.804 -370.145)" />
        <path class="m"
            d="M431.653,643.578a2.267,2.267,0,0,1-1.524-1c-.142-.255-.3-.6-.595-.567s-.391.34-.453.606a17,17,0,0,1-.856,2.941,5.519,5.519,0,0,1-1.83,2.408c-.385.266-.81.465-1.19.748a8.177,8.177,0,0,1-1,.759,5.964,5.964,0,0,1-.771.283,5.339,5.339,0,0,0-1.1.567,2.182,2.182,0,0,0-.754.72,1.037,1.037,0,0,0-.057,1,1.071,1.071,0,0,0,.731.5,3.084,3.084,0,0,0,.912,0c1.207-.085,2.414-.193,3.621-.3a10.453,10.453,0,0,0,1.513-.21l.788-.215a6.269,6.269,0,0,1,1.377-.2,1.071,1.071,0,0,1,.4.04c.278.091.476.368.765.425A1.281,1.281,0,0,0,432.2,652a12.511,12.511,0,0,1,2.68-.278,1.131,1.131,0,0,0,1.043-.453c.227-.442-.147-.935-.3-1.411a4.534,4.534,0,0,1-.125-.924,5.632,5.632,0,0,0-.663-2.2c-.306-.567-.725-1.19-.51-1.791a1.7,1.7,0,0,0,.2-.618C434.441,643.357,432.208,643.7,431.653,643.578Z"
            transform="translate(-212.086 -370.522)" />
        <path class="n"
            d="M474.156,610.349a5.168,5.168,0,0,1-2.641-2.618c-.108-.249-.2-.516-.306-.765a5.816,5.816,0,0,0-1.575-2.193.776.776,0,0,0-.567-.244.618.618,0,0,0-.425.459,1.751,1.751,0,0,0-.045.708,12.612,12.612,0,0,0,.283,1.655l.323,1.462a3.212,3.212,0,0,0,.2.652,2.265,2.265,0,0,0,.538.64c.295.272.595.533.9.793a3.074,3.074,0,0,0,.567.391,3.293,3.293,0,0,0,1,.295,8.534,8.534,0,0,1,3.763,1.451v-1.088a1.439,1.439,0,0,0-.283-.788A5.027,5.027,0,0,0,474.156,610.349Z"
            transform="translate(-232.524 -354.282)" />
        <path class="d"
            d="M474.156,610.349a5.168,5.168,0,0,1-2.641-2.618c-.108-.249-.2-.516-.306-.765a5.816,5.816,0,0,0-1.575-2.193.776.776,0,0,0-.567-.244.618.618,0,0,0-.425.459,1.751,1.751,0,0,0-.045.708,12.612,12.612,0,0,0,.283,1.655l.323,1.462a3.212,3.212,0,0,0,.2.652,2.265,2.265,0,0,0,.538.64c.295.272.595.533.9.793a3.074,3.074,0,0,0,.567.391,3.293,3.293,0,0,0,1,.295,8.534,8.534,0,0,1,3.763,1.451v-1.088a1.439,1.439,0,0,0-.283-.788A5.027,5.027,0,0,0,474.156,610.349Z"
            transform="translate(-232.524 -354.282)" />
        <ellipse class="m" cx="1.609" cy="1.621" rx="1.609" ry="1.621" transform="translate(253.498 241.641)" />
        <path class="m"
            d="M491.925,590.443a1.739,1.739,0,0,0-1.269.181,1.762,1.762,0,0,0-.436.6,8.641,8.641,0,0,0-.839,1.972c-.142.567-.164,1.207-.346,1.791-.329,1.077-1.173,1.989-1.269,3.111-.045.5.04,1.094-.329,1.434a2.087,2.087,0,0,1-.289.21,2.177,2.177,0,0,0-.635.652,2.136,2.136,0,0,1-.448.618c-.329.244-.873.221-1.031.567s.255.816.159,1.224-.453.487-.708.714a2.476,2.476,0,0,0-.612,1.133,3.78,3.78,0,0,1-3.083-.765,9.814,9.814,0,0,1,.482,3.525,1.439,1.439,0,0,1-.283,1.088,19.628,19.628,0,0,1,3.78.657,2.607,2.607,0,0,0,1.649,0,2.754,2.754,0,0,0,.759-.6,4.841,4.841,0,0,0,1.558-2.4,14.112,14.112,0,0,0,.028-1.626,9.17,9.17,0,0,1,.414-1.978,23.532,23.532,0,0,0,.72-4.069c.074-.85.81-1.53,1.2-2.267a11.1,11.1,0,0,0,1.524-4.533C492.639,591.152,492.457,590.5,491.925,590.443Z"
            transform="translate(-237.815 -348.156)" />
        <path class="d"
            d="M491.925,590.443a1.739,1.739,0,0,0-1.269.181,1.762,1.762,0,0,0-.436.6,8.641,8.641,0,0,0-.839,1.972c-.142.567-.164,1.207-.346,1.791-.329,1.077-1.173,1.989-1.269,3.111-.045.5.04,1.094-.329,1.434a2.087,2.087,0,0,1-.289.21,2.177,2.177,0,0,0-.635.652,2.136,2.136,0,0,1-.448.618c-.329.244-.873.221-1.031.567s.255.816.159,1.224-.453.487-.708.714a2.476,2.476,0,0,0-.612,1.133,3.78,3.78,0,0,1-3.083-.765,9.814,9.814,0,0,1,.482,3.525,1.439,1.439,0,0,1-.283,1.088,19.628,19.628,0,0,1,3.78.657,2.607,2.607,0,0,0,1.649,0,2.754,2.754,0,0,0,.759-.6,4.841,4.841,0,0,0,1.558-2.4,14.112,14.112,0,0,0,.028-1.626,9.17,9.17,0,0,1,.414-1.978,23.532,23.532,0,0,0,.72-4.069c.074-.85.81-1.53,1.2-2.267a11.1,11.1,0,0,0,1.524-4.533C492.639,591.152,492.457,590.5,491.925,590.443Z"
            transform="translate(-237.815 -348.156)" />
        <path class="m"
            d="M472.505,625.575a14.937,14.937,0,0,1-3.5-2.924c-2.125-2-4.726-3.4-6.964-5.287a49.073,49.073,0,0,0-4.437-3.729,11.088,11.088,0,0,0-4.754-1.66,1.263,1.263,0,0,0-.567,0,1.3,1.3,0,0,0-.538.425,17.122,17.122,0,0,0-1.921,2.635c-2.833,4.817-6.862,8.862-10.2,13.339a.85.85,0,0,0-.164.317.788.788,0,0,0,.125.493l.68,1.326c.38.748.992,1.615,1.808,1.468a1.977,1.977,0,0,0,.946-.606l3.049-2.918,3.2-3.054a24.514,24.514,0,0,0,5-5.9c.952,1.655,2.646,2.737,3.8,4.25.442.567.8,1.207,1.2,1.819.629.975,1.349,1.893,2.063,2.833l3.666,4.675a7.014,7.014,0,0,0,1.7,1.7,6.488,6.488,0,0,0,2.941.788,38.854,38.854,0,0,0,4.142.147,7.14,7.14,0,0,0,3.088-.567,2.8,2.8,0,0,0,1.672-2.488,3.65,3.65,0,0,0-.527-1.547A12.629,12.629,0,0,0,472.505,625.575Z"
            transform="translate(-219.903 -357.494)" />
        <ellipse class="j" cx="1.241" cy="1.247" rx="1.241" ry="1.247" transform="translate(254.858 243.137)" />
        <path class="n"
            d="M502.17,589.553a2.385,2.385,0,0,1,.136,1.791,7.262,7.262,0,0,1-.8,1.649,7.847,7.847,0,0,1-1.037,1.473,10.673,10.673,0,0,0,5.451-1.564,7.917,7.917,0,0,0,3.44-3,1.586,1.586,0,0,1-1.269-.238,4.53,4.53,0,0,1-.969-.9l-.958-1.077a4.314,4.314,0,0,1-.567-.776,2.142,2.142,0,0,1-.255-1.252,7.289,7.289,0,0,1-1.269,1.054c-.686.448-1.439.771-2.131,1.213-.238.159-.782.408-.64.725S501.977,589.213,502.17,589.553Z"
            transform="translate(-246.343 -346.104)" />
        <path class="d"
            d="M502.17,589.553a2.385,2.385,0,0,1,.136,1.791,7.262,7.262,0,0,1-.8,1.649,7.847,7.847,0,0,1-1.037,1.473,10.673,10.673,0,0,0,5.451-1.564,7.917,7.917,0,0,0,3.44-3,1.586,1.586,0,0,1-1.269-.238,4.53,4.53,0,0,1-.969-.9l-.958-1.077a4.314,4.314,0,0,1-.567-.776,2.142,2.142,0,0,1-.255-1.252,7.289,7.289,0,0,1-1.269,1.054c-.686.448-1.439.771-2.131,1.213-.238.159-.782.408-.64.725S501.977,589.213,502.17,589.553Z"
            transform="translate(-246.343 -346.104)" />
        <path class="j"
            d="M497.742,592.706a1.615,1.615,0,0,0,0,1.87c.057.068.261.493.346.5a.312.312,0,0,0,.215-.113,14.225,14.225,0,0,0,1.213-1.445,2.7,2.7,0,0,1,1.541-1.009,3.332,3.332,0,0,1,2.125.663,2.018,2.018,0,0,1,.731.567,1.978,1.978,0,0,1,.238.81,39.04,39.04,0,0,1,.215,5.151,20.3,20.3,0,0,1-.244,3.711c-.125.629-.306,1.247-.391,1.887a12.031,12.031,0,0,0-.079,1.7v2.369a6.233,6.233,0,0,0,.091,1.3c.113.516.357,1,.521,1.5a9.817,9.817,0,0,1,.346,1.774l.323,2.448a3.1,3.1,0,0,1-.289,2.267c-.21.278-.487.5-.7.782-.8,1.043-.567,2.533-.878,3.808a4.749,4.749,0,0,1-1.553,2.38,2.567,2.567,0,0,1-2.046.731,2.8,2.8,0,0,1-1.864-2.2,8.814,8.814,0,0,0-.958-2.873,7.621,7.621,0,0,0-1.893-1.581,3.269,3.269,0,0,1-1.479-1.921c-.062-.357,0-.725-.062-1.088a2.567,2.567,0,0,0-1.581-2.08c-.51-.2-1.133-.272-1.428-.737a3.439,3.439,0,0,0,1.49-2,10.272,10.272,0,0,0,.363-2.527l.17-2.833a9.464,9.464,0,0,1,.674-3.677c.249-.51.567-.992.822-1.5a16.246,16.246,0,0,0,.878-2.193c.408-1.167.816-2.335,1.179-3.513a6.617,6.617,0,0,1,.646-1.638C496.728,593.46,497.17,592.82,497.742,592.706Z"
            transform="translate(-241.893 -349.071)" />
        <path class="m"
            d="M492.3,610.809h.754l.159-1.133a2.363,2.363,0,0,1,.159-.663,3.968,3.968,0,0,1,.436-.635c.737-1.048.686-2.437.867-3.712a18.887,18.887,0,0,1,1.655-4.85l1.462-3.258a4.5,4.5,0,0,0,.317-.833,4.993,4.993,0,0,0,.091-.963c0-.5.159-2.34.176-2.833,0-.187-.414-.085-.5-.249-.181-.363-.431.618-.776.833a1.9,1.9,0,0,0-.674.986c-.317.816-.51,1.7-.8,2.51a5.129,5.129,0,0,1-1.366,2.221c-.3.261-.646.47-.929.754-.907.9-1,2.318-1.026,3.6C492.275,603.363,492.128,610.809,492.3,610.809Z"
            transform="translate(-242.767 -348.678)" />
        <path class="m"
            d="M506.243,590.411a2.573,2.573,0,0,0-1.343,1.842,9.317,9.317,0,0,1-.68,2.267c-.918,1.6-3.258,2.063-3.91,3.791a6.969,6.969,0,0,0-.261,1.785c-.113,1.241-.521,2.437-.646,3.672a16.362,16.362,0,0,0,.068,2.884l.822,9.758a13.034,13.034,0,0,1-.244,4.3,4.136,4.136,0,0,0,2.459-.408c.765-.351,1.468-.833,2.21-1.241a22.764,22.764,0,0,0,3.791-2.131,2.317,2.317,0,0,0,.51-.567,4.9,4.9,0,0,0,.34-1.281,6.916,6.916,0,0,1,.368-1.009,29.708,29.708,0,0,0,1.065-3.015,17.3,17.3,0,0,0,.487-2.063c.091-.567.142-1.133.187-1.7a9.974,9.974,0,0,1,.521-2.578,20.77,20.77,0,0,0,1.2-6.188,3.237,3.237,0,0,0-.062-.907,4.852,4.852,0,0,0-.5-1.037c-.34-.64-.567-1.343-.861-1.995a9.809,9.809,0,0,0-3.349-3.519A2.55,2.55,0,0,0,506.243,590.411Z"
            transform="translate(-245.866 -348.13)" />
        <path class="n"
            d="M474.505,616.054a5.91,5.91,0,0,1-1.558-1.184c-.2-.238-.374-.5-.567-.742a3.859,3.859,0,0,0-1.961-1.133,9.58,9.58,0,0,0-2.267-.221,4.112,4.112,0,0,0-1.513.181,1.541,1.541,0,0,0-1,1.077,1.785,1.785,0,0,0,.765,1.587,3.6,3.6,0,0,0,1.524.737,12.193,12.193,0,0,0,1.377.164c2.709.283,5.128,1.757,7.5,3.1q3.128,1.779,6.38,3.309a13.257,13.257,0,0,0,.108-1.955c0-.487-.04-1.235-.5-1.524a10.017,10.017,0,0,0-2.029-.606,31.924,31.924,0,0,1-4.086-1.655A20.331,20.331,0,0,1,474.505,616.054Z"
            transform="translate(-231.247 -357.85)" />
        <ellipse class="n" cx="4.828" cy="4.856" rx="4.828" ry="4.856" transform="translate(250.279 233.181)" />
        <path class="m"
            d="M504.827,599.709a7.739,7.739,0,0,0-.935,1.751c-.567,1.224-1.53,2.267-2,3.564s-.476,2.964-1.445,4.023a1.41,1.41,0,0,0-.425.612,2.927,2.927,0,0,1-.045.442c-.142.385-.771.4-.89.8-.034.113,0,.238-.057.351-.1.255-.436.295-.657.448-.47.317-.374,1.054-.708,1.513a1.275,1.275,0,0,1-1.207.425,4.251,4.251,0,0,1-1.252-.47,1.208,1.208,0,0,0-.453-.142.935.935,0,0,0-.521.181,3.213,3.213,0,0,0-1.3,2.748,8.975,8.975,0,0,0,.748,3.077,1.235,1.235,0,0,0,.244.459,1.082,1.082,0,0,0,1.2.091,5.665,5.665,0,0,1,1.173-.527c.748-.136,1.479.38,2.238.334a3.112,3.112,0,0,0,1.507-.663,8.33,8.33,0,0,0,2.029-1.7c.329-.436.567-.929.861-1.394a17.9,17.9,0,0,1,1.218-1.626l2.788-3.4a7.832,7.832,0,0,0,.748-1.031,7.267,7.267,0,0,0,.567-1.558,11.934,11.934,0,0,0,.567-2.771,10.649,10.649,0,0,0-.2-2.323,8.212,8.212,0,0,0-.567-2.216C507.439,599.426,505.966,598.383,504.827,599.709Z"
            transform="translate(-243.073 -351.926)" />
        <path class="o"
            d="M512.461,576.951a5.44,5.44,0,0,0-2.233-4.42,6.465,6.465,0,0,0-5.491-6.3,6.273,6.273,0,0,0-12.359.334c-2.006-.453-3.842.136-4.176,1.371s1.082,2.833,3.2,3.4a5.956,5.956,0,0,0,2.051.2,6.278,6.278,0,0,0,4.318,2.692,6.443,6.443,0,0,0,4.715,4.862,5.411,5.411,0,0,0,1.456,2.012v.47a4.086,4.086,0,1,0,8.171,0,4.362,4.362,0,0,0-.391-1.808A5.463,5.463,0,0,0,512.461,576.951Z"
            transform="translate(-241.006 -335.503)" />
        <path class="d"
            d="M489.558,568.2c.334-1.235,2.17-1.825,4.176-1.371a6.381,6.381,0,0,1,6.233-5.372h.414a6.142,6.142,0,0,0-1.779-.266,6.381,6.381,0,0,0-6.233,5.372c-2.006-.453-3.842.136-4.176,1.371s1.082,2.833,3.2,3.4a6.237,6.237,0,0,0,1.213.21C490.578,570.936,489.224,569.463,489.558,568.2Z"
            transform="translate(-241.002 -335.5)" />
        <path class="d"
            d="M509.421,589.894a4.246,4.246,0,0,1,0-.465,5.292,5.292,0,0,1-1.456-2.012,6.426,6.426,0,0,1-4.715-4.868,6.261,6.261,0,0,1-4.324-2.686,5.438,5.438,0,0,1-1.207-.034,6.3,6.3,0,0,0,4.165,2.476,6.443,6.443,0,0,0,4.715,4.862,5.411,5.411,0,0,0,1.456,2.012v.47a4.159,4.159,0,0,0,4.063,4.227A4.227,4.227,0,0,1,509.421,589.894Z"
            transform="translate(-245.152 -343.578)" />
        <ellipse class="n" cx="0.742" cy="0.992" rx="0.742" ry="0.992"
            transform="translate(255.532 238.689) rotate(-37.22)" />
    </g>
</svg>