<svg xmlns="http://www.w3.org/2000/svg" width="477.16" height="350.409" viewBox="0 0 477.16 350.409"><defs><style>.a{fill:#8fffff;}.b{fill:#b78876;}.c{fill:#2f2e41;}.d{fill:#1a4e89;}.e{fill:#e6e6e6;}.f{fill:#fff;}</style></defs><path class="a" d="M973.625,748.806c-1.529,13.906-81.809,12.739-81.687,0C893.467,734.9,973.747,736.067,973.625,748.806Z" transform="translate(-496.465 -408.393)"/><path class="b" d="M774.055,559.083l-3.254,7.051-5.966-.542-3.8-12.475L767,549.863Z" transform="translate(-352.043 -254.357)"/><path class="b" d="M815.546,596.8l.128,4.914-9.221.543v-5.966Z" transform="translate(-373.052 -275.833)"/><path class="c" d="M794.679,424.236l-2.17,43.391,5.424,47.188-16.272,2.17-10.305-59.662L768.1,416.642Z" transform="translate(-355.311 -192.731)"/><path class="c" d="M976.233,506.35s6.509,42.848-7.051,56.95-32,39.052-32,39.052l-13.017-16.272,33.086-35.255-6.509-23.865-26.577-12.475,4.339-29.831,39.052-.542Z" transform="translate(-511.373 -290.575)"/><circle class="b" cx="11.932" cy="11.932" r="11.932" transform="translate(420.927 92.654)"/><path class="b" d="M968.077,323.643s.542,16.814,3.254,18.983-9.763,11.39-9.763,11.39L953.432,341V329.067Z" transform="translate(-524.912 -216.345)"/><path class="d" d="M799.588,233.484l6.585-9.943,3.72,5.062,5.424,15.187-4.339,59.12-25.492.543-3.254-67.8,8.135-9.763Z" transform="translate(-361.847 -103.406)"/><path class="c" d="M907.913,372.629l-4.339-.542s-1.085.542-1.627,4.339S894.9,413.85,894.9,413.85l8.678,41.221,9.763-13.017-5.966-22.78,5.966-22.78Z" transform="translate(-497.834 -238.754)"/><path class="c" d="M860.4,248.1h3.254l8.136,43.933L864.193,326.2,856.6,313.727l2.17-13.56-1.085-11.932-3.8-7.051Z" transform="translate(-394.994 -114.766)"/><path class="c" d="M918.866,687.486s3.254-1.085,3.254,1.085-2.169,8.678-2.169,8.678,3.254,20.068-1.627,18.984-8.678-10.305-9.221-13.017-3.254-16.814-3.254-16.814-4.339-10.305-1.627-10.848,10.305-2.712,10.305-2.712S910.187,686.4,918.866,687.486Z" transform="translate(-501.735 -377.878)"/><path class="c" d="M959.577,729s8.678-5.424,10.305-1.085a45.574,45.574,0,0,1,2.17,9.763s2.17,7.051-6.509,5.966-7.593-1.085-8.136-4.339S959.577,729,959.577,729Z" transform="translate(-526.717 -402.574)"/><path class="c" d="M956.419,302.679l-2.17-.542s-1.627-9.221-5.424-8.136-13.56,2.17-13.56-2.17,9.221-8.136,14.644-7.593,14.644,2.17,14.1,10.305a54.6,54.6,0,0,1-4.042,16.05l-.283-4.824Z" transform="translate(-516.508 -198.093)"/><path class="d" d="M794.615,242.016l9.221-6.509-9.221-7.593-3.2,3.841Z" transform="translate(-366.094 -105.429)"/><path class="d" d="M822.663,239.606l-8.135-5.966,6.508-9.763,3.8,4.881Z" transform="translate(-376.786 -103.562)"/><path class="c" d="M912.053,362.049,929.41,355l4.068-2.983,12.2,53.967,8.136-24.407-2.441-31.187,22.509,11.661-7.593,36.882-1.085,14.1,3.254,11.39s11.39,8.136,7.593,16.814-8.136,9.221-8.136,9.221-18.441-17.356-19.526-21.7-2.712-11.932-2.712-11.932-9.221,34.713-20.068,34.17-10.848-11.932-10.848-11.932l2.712-11.932,4.339-12.475-2.169-20.611Z" transform="translate(-505.771 -228.717)"/><rect class="e" width="378.114" height="242.161" transform="translate(0.161 0.214)"/><rect class="f" width="356.49" height="92.314" transform="translate(10.974 30.587)"/><rect class="e" width="75.39" height="4.328" transform="translate(99.647 43.922)"/><rect class="d" width="116.418" height="4.328" transform="translate(99.647 59.708)"/><rect class="e" width="94.878" height="4.328" transform="translate(99.647 74.58)"/><rect class="a" width="55.388" height="4.328" transform="translate(99.647 89.397)"/><rect class="e" width="83.595" height="4.328" transform="translate(99.647 104.214)"/><rect class="e" width="9.231" height="9.231" transform="translate(65.286 42.383)"/><rect class="a" width="9.231" height="9.231" transform="translate(65.286 57.256)"/><rect class="e" width="9.231" height="9.231" transform="translate(65.286 72.129)"/><rect class="d" width="9.231" height="9.231" transform="translate(65.286 87.001)"/><rect class="e" width="9.231" height="9.231" transform="translate(65.286 101.874)"/><rect class="e" width="30.771" height="30.771" transform="translate(286.839 63.41)"/><rect class="f" width="356.49" height="92.314" transform="translate(10.974 135.722)"/><rect class="e" width="9.231" height="9.231" transform="translate(81.184 143.927)"/><rect class="a" width="9.231" height="9.231" transform="translate(65.286 143.927)"/><path class="e" d="M518.277,412a34.957,34.957,0,0,0-56.43-5.213l-2.25-1.966a37.938,37.938,0,0,1,61.251,5.657Z" transform="translate(-296.472 -247.887)"/><path class="d" d="M569.271,466.972l-2.479-1.667a34.974,34.974,0,0,0,1.071-37.252l2.571-1.522A37.962,37.962,0,0,1,569.271,466.972Z" transform="translate(-346.059 -263.939)"/><path class="d" d="M451.849,466.265a37.936,37.936,0,0,1-.311-50.26l2.25,1.966a34.949,34.949,0,0,0,.287,46.3Z" transform="translate(-288.413 -259.07)"/><path class="d" d="M488.444,517.146a38,38,0,0,1-28.268-12.637l2.225-1.993a34.955,34.955,0,0,0,55.072-3.836l2.479,1.667a37.917,37.917,0,0,1-31.509,16.8Z" transform="translate(-296.74 -297.314)"/><rect class="d" width="30.771" height="30.771" transform="translate(286.839 163.929)"/><rect class="e" width="30.771" height="30.771" transform="translate(64.004 183.931)"/><rect class="d" width="378.114" height="16.064"/><circle class="f" cx="2.977" cy="2.977" r="2.977" transform="translate(8.96 5.235)"/><circle class="f" cx="2.977" cy="2.977" r="2.977" transform="translate(20.261 5.235)"/><circle class="f" cx="2.977" cy="2.977" r="2.977" transform="translate(31.562 5.235)"/></svg>