<svg xmlns="http://www.w3.org/2000/svg" width="463.565" height="350" viewBox="0 0 463.565 350"><defs><style>.a{fill:#3f3d56;}.b{fill:#8fffff;}.c{fill:#e6e6e6;}.d{fill:#ffb8b8;}.e{fill:#2f2e41;}.f{fill:#1a4e89;}.g{fill:#ffb9b9;}.h{fill:none;stroke:#3f3d56;stroke-miterlimit:10;}.i{opacity:0.1;isolation:isolate;}</style></defs><path class="a" d="M436.285,205.634H321.929a2.12,2.12,0,0,1-2.118-2.118V175.15a2.12,2.12,0,0,1,2.118-2.118H436.285a2.12,2.12,0,0,1,2.118,2.118v28.367A2.12,2.12,0,0,1,436.285,205.634ZM321.929,173.879a1.272,1.272,0,0,0-1.271,1.271v28.367a1.272,1.272,0,0,0,1.271,1.271H436.285a1.272,1.272,0,0,0,1.271-1.271V175.15a1.272,1.272,0,0,0-1.271-1.271Z" transform="translate(-222.51 -130.968)"/><circle class="b" cx="8.626" cy="8.626" r="8.626" transform="translate(108.561 48.65)"/><path class="c" d="M401.195,192.745a1.438,1.438,0,1,0,0,2.875h67.779a1.438,1.438,0,1,0,0-2.875Z" transform="translate(-264.084 -141.22)"/><path class="c" d="M401.195,210.718a1.438,1.438,0,1,0,0,2.875H430.36a1.438,1.438,0,0,0,0-2.875Z" transform="translate(-264.084 -150.566)"/><path class="a" d="M401.682,389.688H350.857a2.12,2.12,0,0,1-2.118-2.118V334.638a2.12,2.12,0,0,1,2.118-2.118h50.825a2.12,2.12,0,0,1,2.118,2.118V387.57A2.12,2.12,0,0,1,401.682,389.688Zm-50.825-56.32a1.272,1.272,0,0,0-1.271,1.271V387.57a1.272,1.272,0,0,0,1.271,1.271h50.825a1.272,1.272,0,0,0,1.271-1.271V334.638a1.272,1.272,0,0,0-1.271-1.271Z" transform="translate(-237.554 -213.907)"/><path class="c" d="M374.158,355.263a1.438,1.438,0,1,0,0,2.875h29.165a1.438,1.438,0,0,0,0-2.875Z" transform="translate(-250.024 -225.734)"/><path class="c" d="M374.158,372.911a1.438,1.438,0,1,0,0,2.875h29.165a1.438,1.438,0,0,0,0-2.875Z" transform="translate(-250.024 -234.912)"/><path class="b" d="M396.293,409.275a9.05,9.05,0,1,1,9.05-9.05A9.05,9.05,0,0,1,396.293,409.275Z" transform="translate(-257.577 -244.409)"/><path class="a" d="M630.218,85.393h50.825a2.12,2.12,0,0,1,2.118,2.118v52.932a2.12,2.12,0,0,1-2.118,2.118H630.218a2.12,2.12,0,0,1-2.118-2.118V87.511a2.12,2.12,0,0,1,2.118-2.118Zm50.825,56.321a1.272,1.272,0,0,0,1.271-1.271V87.511a1.272,1.272,0,0,0-1.271-1.271H630.218a1.272,1.272,0,0,0-1.271,1.271v52.932a1.272,1.272,0,0,0,1.271,1.271Z" transform="translate(-382.83 -85.393)"/><path class="c" d="M682.684,178.642a1.438,1.438,0,0,0,0-2.875H653.519a1.438,1.438,0,1,0,0,2.875Z" transform="translate(-395.3 -132.39)"/><path class="c" d="M682.684,160.994a1.438,1.438,0,0,0,0-2.875H653.519a1.438,1.438,0,1,0,0,2.875Z" transform="translate(-395.3 -123.212)"/><path class="b" d="M675.654,108.135a9.05,9.05,0,1,1-9.05,9.05A9.05,9.05,0,0,1,675.654,108.135Z" transform="translate(-402.853 -97.22)"/><path class="a" d="M320.036,295.87A72.452,72.452,0,0,1,350.708,282a71.406,71.406,0,0,1,33.851,1.739,72.218,72.218,0,0,1,15.8,6.845A91.923,91.923,0,0,1,414.41,301.06c4.463,3.912,8.78,8,13.44,11.68A75.294,75.294,0,0,0,474.7,329.22q2.11,0,4.218-.116c.762-.042.766-1.232,0-1.19a74.08,74.08,0,0,1-48.427-14.633c-4.829-3.611-9.239-7.74-13.74-11.741a106.276,106.276,0,0,0-13.8-10.769,72.887,72.887,0,0,0-80.472,1.834c-1.117.777-2.209,1.589-3.283,2.425-.6.47.244,1.307.842.841Z" transform="translate(-222.081 -186.362)"/><circle class="a" cx="6.185" cy="6.185" r="6.185" transform="translate(91.138 102.891)"/><circle class="a" cx="6.185" cy="6.185" r="6.185" transform="translate(321.224 185.008)"/><path class="a" d="M755.1,348.854H654.187a2.12,2.12,0,0,1-2.118-2.118V294.228a2.12,2.12,0,0,1,2.118-2.118H755.1a2.12,2.12,0,0,1,2.118,2.118v52.509A2.12,2.12,0,0,1,755.1,348.854Zm-100.917-55.9a1.272,1.272,0,0,0-1.271,1.271v52.509a1.272,1.272,0,0,0,1.271,1.271H755.1a1.272,1.272,0,0,0,1.271-1.271V294.228a1.272,1.272,0,0,0-1.271-1.271Z" transform="translate(-395.295 -192.892)"/><circle class="b" cx="8.626" cy="8.626" r="8.626" transform="translate(267.188 109.192)"/><path class="c" d="M731.688,318.883a1.438,1.438,0,1,0,0,2.875h54.34a1.438,1.438,0,1,0,0-2.875Z" transform="translate(-435.951 -206.815)"/><path class="c" d="M731.688,336.856a1.438,1.438,0,1,0,0,2.875h29.165a1.438,1.438,0,1,0,0-2.875Z" transform="translate(-435.951 -216.161)"/><path class="c" d="M675.8,365.589c-1.094,0-1.984.645-1.984,1.438s.89,1.438,1.984,1.438h80.075c1.094,0,1.984-.645,1.984-1.438s-.89-1.438-1.984-1.438Z" transform="translate(-406.605 -231.104)"/><path class="c" d="M675.8,383.562c-1.094,0-1.984.645-1.984,1.438s.89,1.438,1.984,1.438h80.075c1.094,0,1.984-.645,1.984-1.438s-.89-1.438-1.984-1.438Z" transform="translate(-406.605 -240.45)"/><path class="a" d="M638.592,487.383c5.693-2.47,12.05-.317,17.416,1.96,2.764,1.172,5.5,2.424,8.358,3.349a47.631,47.631,0,0,0,7.369,1.746,52.074,52.074,0,0,0,15.138.093,52.858,52.858,0,0,0,14.609-4.248,49.406,49.406,0,0,0,12.644-8.266q.719-.649,1.409-1.328c.548-.537-.294-1.378-.841-.841a48,48,0,0,1-12.334,8.707,51.666,51.666,0,0,1-14.33,4.6,50.6,50.6,0,0,1-15.1.261,47.525,47.525,0,0,1-7.394-1.607,78.245,78.245,0,0,1-8.161-3.169c-5.416-2.326-11.434-4.6-17.386-3a14.506,14.506,0,0,0-2,.713c-.7.3-.1,1.33.6,1.028Z" transform="translate(-387.812 -290.432)"/><path class="b" d="M583.34,497.235H535.661l11.22-19.434a2.291,2.291,0,0,1,3.969,0l4.793,8.3,8.15-14.116a2.869,2.869,0,0,1,4.969,0Z" transform="translate(-334.759 -285.688)"/><path class="a" d="M577.729,490.811H526.9a2.12,2.12,0,0,1-2.118-2.118V460.327a2.12,2.12,0,0,1,2.118-2.118h50.825a2.12,2.12,0,0,1,2.118,2.118v28.367A2.12,2.12,0,0,1,577.729,490.811ZM526.9,459.056a1.272,1.272,0,0,0-1.271,1.271v28.367a1.272,1.272,0,0,0,1.271,1.271h50.825A1.272,1.272,0,0,0,579,488.694V460.327a1.272,1.272,0,0,0-1.271-1.271Z" transform="translate(-329.104 -279.269)"/><path class="d" d="M824.428,436.191l-9.06,4.6c-3.233,1.642-6.354,1.361-7.549-2.063h0a5.99,5.99,0,0,1,4.556-7.863l8.61-1.607,36.876-12.234L880.2,401.185l8.189,13.046-25.811,13.928Z" transform="translate(-476.115 -249.615)"/><path class="d" d="M806.3,691.435l-6.932-1.155.77-13.093h7.316Z" transform="translate(-415.695 -352.158)"/><path class="d" d="M941.052,665.885l-6.708,2.093-5.213-12.034,6.531-3.3Z" transform="translate(-483.177 -339.396)"/><path class="e" d="M979.856,606.543l-8.471,3.466-40.433-53.14L918.244,619.25l-8.472-1.54c-5.434-53.781-9.866-108.638-4.428-134.583l31.384-1.348,14.248,45.439,6.931,30.806Z" transform="translate(-525.716 -291.526)"/><path class="f" d="M912.079,797.089h0a6.083,6.083,0,0,1-3.77-.4l-4.118-1.853c-3.452-.177-5.8.51-7.726-2a5.038,5.038,0,0,1-.588-5.079h0a5.072,5.072,0,0,1,4.143-3.014l5.655-3.564.3,2.672c2.585,1.464,5.654.832,8.905-.594l1.775,6.213a6.082,6.082,0,0,1-4.574,7.618Z" transform="translate(-521.858 -447.224)"/><path class="f" d="M1056.868,772.617h0a6.081,6.081,0,0,1-3.7.845l-4.5-.415c-3.323.954-5.323,2.367-7.956.619a5.037,5.037,0,0,1-2.205-4.613h0a5.072,5.072,0,0,1,2.939-4.2l4.192-5.207,1.149,2.431c2.92.546,5.617-1.049,8.23-3.454l3.7,5.3a6.083,6.083,0,0,1-1.852,8.69Z" transform="translate(-596.248 -435.495)"/><circle class="d" cx="13.863" cy="13.863" r="13.863" transform="translate(385.597 107.847)"/><path class="d" d="M845.449,291.189l-18.1-3.851-2.31-15.018,12.707-2.7Z" transform="translate(-429.046 -140.213)"/><path class="b" d="M939.172,432.742H906.826l7.291-18.3c-.53-6.3,2.14-10.931,5.96-14.964l4.847-12.169c7.832-5.154,13.736-4.769,20.024,1.925C952.4,399.784,947.243,415.65,939.172,432.742Z" transform="translate(-527.776 -240.564)"/><path class="d" d="M931.45,495.478l-.92,10.119c-.328,3.612-2.225,6.106-5.76,5.3h0a5.99,5.99,0,0,1-4.237-8.039l3.216-8.147,9.242-37.737-1.54-27.34h15.4L944.927,458.9Z" transform="translate(-534.686 -264.407)"/><path class="b" d="M959.038,410.385H941.325l1.242-11.555a8.016,8.016,0,0,1,7.609-7.679h0a8.016,8.016,0,0,1,8.41,7.692Z" transform="translate(-545.716 -244.391)"/><circle class="e" cx="5.211" cy="5.211" r="5.211" transform="translate(411.406 97.035)"/><path class="e" d="M973.191,290.432a5.206,5.206,0,0,1,5.208-4.87c-.108-.014-.214-.03-.324-.037a5.211,5.211,0,0,0-.669,10.4c.11.007.218,0,.326,0A5.206,5.206,0,0,1,973.191,290.432Z" transform="translate(-561.944 -189.462)"/><path class="e" d="M941.474,298.851c-4.647-3.855-17.976,1.045-18.836,3.636-6.284.856-11.042,4.523-11.042,11.042h0c3.736,1.531,7.985,1.342,12.578,0C931.5,319.5,932,327,927.546,335.613l5.478.109,6.791-9.924.325,10.067,12.558-.252V321.187a30.164,30.164,0,0,0-3.221-13.818C947.519,303.567,944.483,301.347,941.474,298.851Z" transform="translate(-530.257 -195.656)"/><ellipse class="d" cx="2.492" cy="3.488" rx="2.492" ry="3.488" transform="translate(397.032 121.706)"/><path class="g" d="M296.282,332.774s1.5-25.962,9.287-20.062-3.4,22.47-3.4,22.47Z" transform="translate(-210.274 -203.152)"/><path class="g" d="M229.569,515.9s17.3,19.418,7.62,20.753S223.7,518.36,223.7,518.36Z" transform="translate(-172.532 -309.27)"/><path class="f" d="M174.69,324.284h0a11.392,11.392,0,0,1,8.382,9.432l5.5,39.161,7.713,31.238s3.857,3.471,2.314,5.4,1.928,10.027,1.928,10.027l-9.641,3.085s-1.157-8.1-3.085-8.485c-1.695-.339-20.665-51.015-25.237-63.292-.63-1.693-.987-2.655-.987-2.655S162.349,322.355,174.69,324.284Z" transform="translate(-140.224 -209.57)"/><path class="g" d="M184.576,749.885l5.922,10.495c4.586,9.791.511,11.57-10.734,6.716L177.2,754.7Z" transform="translate(-148.348 -430.949)"/><path class="f" d="M184.552,774.722s2.811-4.577,3.828-3.811S193.591,775,193.591,775l5.463,5.232s18.456,1.952,6.729,8.418-18.209,1.1-18.209,1.1-16.426.854-16.161-3.729,5.562-11.833,5.562-11.833S183.652,778.667,184.552,774.722Z" transform="translate(-145.337 -441.839)"/><path class="e" d="M137.815,493.308l5.552,67.178s.185,40.159,6.107,47.932,6.107,11.659,6.107,11.659l12.214-6.292s-6.292-10.485-5-12.09a8.946,8.946,0,0,0,1.666-3.456l-3.331-41.454,6.292-72.175Z" transform="translate(-127.866 -292.998)"/><path class="h" d="M155.551,766.85" transform="translate(-137.09 -439.772)"/><path class="g" d="M34,662.888l-5.182,13.694-11.752-4.913,6.2-10.262Z" transform="translate(-8.874 -343.952)"/><path class="f" d="M133.566,764.772s4.407-2.755,4.958-1.653,2.755,5.785,2.755,5.785l2.479,6.887s15.151,9.641,2.2,10.192S129.71,779.1,129.71,779.1s-14.6-6.336-12.4-10.192,9.917-7.856,9.917-7.856S131.087,767.8,133.566,764.772Z" transform="translate(-117.087 -436.754)"/><path class="e" d="M184.821,501.112l2.961,61.811s-27.019,55.889-29.98,57.37a7.434,7.434,0,0,0-3.7,4.442l-16.286-4.071,7.4-11.844,16.286-39.6a6.53,6.53,0,0,0,3.331-4.812c.74-3.7,2.221-3.7-1.481-4.442a4.6,4.6,0,0,1-3.7-4.441l-12.214-56.259Z" transform="translate(-127.866 -300.617)"/><circle class="g" cx="14.805" cy="14.805" r="14.805" transform="translate(26.645 100.958) rotate(-80.783)"/><path class="g" d="M177.707,272.159s-1.11,18.876-2.591,20.727,15.545,1.48,15.545,1.48-1.11-15.915,0-17.4S177.707,272.159,177.707,272.159Z" transform="translate(-147.217 -182.517)"/><path class="f" d="M184.326,403.068s-41.824-3.7-49.6,0c0,0,2.861-10.612,2.121-11.721-.538-.811.946-31.04.48-48.477-.264-9.839-2.534-19.448,4.065-26.754a20.544,20.544,0,0,1,7.4-5.582s-.739-7.032,2.961-7.4c0,0,14.068-1.483,19.247,2.961,1.656,1.411,2.7,5.712,2.808,9.417-2.563,12.6-1.656,26.59.7,41.1.144.922.3,1.848.461,2.774C177.463,373.775,181.235,388.611,184.326,403.068Z" transform="translate(-126.263 -198.501)"/><path class="e" d="M181.4,250.145a19.718,19.718,0,0,1,3.718.514,9.41,9.41,0,0,0,10.058-7.016,5.384,5.384,0,0,1,.514-1.676c.685-1.118,2.244-1.331,3.529-1.074a27.245,27.245,0,0,0,3.813.927,5.838,5.838,0,0,0,5.039-2.852,9.67,9.67,0,0,0,1.237-5.841l-.969,1.017a4.921,4.921,0,0,1-.439-2.675,3.1,3.1,0,0,0-2.94.752c-.854.091-.21-1.585-.844-2.164a1.468,1.468,0,0,0-1.033-.193c-1.818.018-3.288-1.373-4.72-2.492a20.058,20.058,0,0,0-8.471-3.864,11.146,11.146,0,0,0-6.181.3,13.2,13.2,0,0,0-4.174,2.961,25.482,25.482,0,0,0-7.013,10.406,17.518,17.518,0,0,0-.084,10.158c.511,1.724,2.05,7.629,4.3,7.766C179.571,255.272,177.871,250.355,181.4,250.145Z" transform="translate(-145.5 -157.066)"/><path class="f" d="M193.419,328.181l5.3.568s5.207,10.1,4.829,12.209-1.2.828,1.142,4.2,8.993,12.085,9.817,13.364,23.273-15.849,21.877-20.981c0,0,7.09,5.086,10.128,5.763,0,0-23.136,30.343-26.36,34.226s-5.819,3.086-10.25.783-26.846-25.267-26.846-25.267Z" transform="translate(-151.395 -211.65)"/><path class="i" d="M198.587,398.968l-18.436-18.436,4.665-1.521,13.31,17.183C198.27,397.115,198.428,398.042,198.587,398.968Z" transform="translate(-149.882 -238.083)"/></svg>