<svg xmlns="http://www.w3.org/2000/svg" width="122.188" height="61.922" viewBox="0 0 122.188 61.922"><defs><style>.a{fill:#fff;}</style></defs><path class="a" d="M64,33.039C30.26,33.039,2.906,46.9,2.906,64S30.26,94.961,64,94.961,125.094,81.1,125.094,64,97.74,33.039,64,33.039ZM48.1,70.032a11.944,11.944,0,0,1-4.86,2.507c-1.783.581-4.052.461-6.811.461H30.179L28.446,83h-7.3L27.66,49H41.7c4.224,0,7.305,1.215,9.242,3.432s2.519,5.364,1.747,9.337A14.706,14.706,0,0,1,48.1,70.032ZM69.414,73l2.881-14.42c.328-1.688.208-2.942-.361-3.555S70.152,54,68.3,54h-5.79L58.778,73H51.534l6.515-33h7.244l-1.732,9h6.453c4.061,0,6.861.815,8.4,2.231s2,3.356,1.387,6.528L76.772,73Zm40.259-11.178a14.567,14.567,0,0,1-4.584,8.21,11.95,11.95,0,0,1-4.86,2.507c-1.782.581-4.053.461-6.812.461H87.164L85.432,83h-7.3l6.514-34H98.686c4.224,0,7.305,1.215,9.241,3.432S110.445,57.85,109.673,61.822ZM95.919,54h-5L88.191,68h4.442c2.942,0,5.136-.29,6.576-1.4a8.465,8.465,0,0,0,2.918-5.421c.484-2.491.264-4.434-.66-5.458S98.693,54,95.919,54ZM38.934,54h-5L31.2,68h4.441c2.943,0,5.136-.29,6.577-1.4a8.464,8.464,0,0,0,2.917-5.421c.484-2.491.264-4.434-.66-5.458S41.708,54,38.934,54Z" transform="translate(-2.906 -33.039)"/></svg>