<svg xmlns="http://www.w3.org/2000/svg" width="106.119" height="94.761" viewBox="0 0 106.119 94.761"><defs><style>.a{fill:#fff;}</style></defs><g transform="translate(-1.4 -8.1)"><circle class="a" cx="9.663" cy="9.663" r="9.663" transform="translate(44.797 45.818)"/><path class="a" d="M91.16,39.546c-1.865-.678-3.814-1.356-5.848-1.949.509-2.034.932-4.068,1.271-6.018,1.78-11.188-.17-19.071-5.594-22.122A10.529,10.529,0,0,0,75.564,8.1c-5.933,0-13.477,4.407-21.105,11.782C46.831,12.507,39.287,8.1,33.354,8.1A10.529,10.529,0,0,0,27.93,9.456c-5.425,3.136-7.374,11.019-5.594,22.122.339,1.949.763,3.984,1.271,6.018a59.109,59.109,0,0,0-5.848,1.949C7.164,43.614,1.4,49.208,1.4,55.48S7.248,67.347,17.759,71.415c1.865.678,3.814,1.356,5.848,1.949-.509,2.034-.932,4.068-1.271,6.018-1.78,11.188.17,19.071,5.594,22.122a10.529,10.529,0,0,0,5.425,1.356c6.018,0,13.562-4.407,21.105-11.782,7.628,7.374,15.172,11.782,21.105,11.782a10.529,10.529,0,0,0,5.425-1.356c5.425-3.136,7.374-11.019,5.594-22.122-.339-1.949-.763-3.984-1.271-6.018a59.108,59.108,0,0,0,5.848-1.949c10.595-4.068,16.359-9.663,16.359-15.935S101.755,43.614,91.16,39.546ZM78.616,13.694C82.091,15.728,83.278,22,81.837,30.9a51.041,51.041,0,0,1-1.187,5.594,100.7,100.7,0,0,0-13.985-2.119A122.3,122.3,0,0,0,57.85,23.357c6.272-6.187,12.629-10.425,17.8-10.425a5.726,5.726,0,0,1,2.967.763ZM69.123,63.956c-1.526,2.712-3.306,5.425-5.17,8.137-3.136.254-6.272.339-9.493.339-3.306,0-6.442-.085-9.493-.339q-2.8-4.068-5.086-8.137c-1.61-2.8-3.136-5.679-4.492-8.476,1.356-2.8,2.882-5.679,4.492-8.476,1.526-2.712,3.306-5.425,5.17-8.137,3.136-.254,6.272-.339,9.493-.339,3.306,0,6.442.085,9.493.339q2.8,4.068,5.086,8.137c1.61,2.8,3.136,5.679,4.492,8.476C72.174,58.278,70.733,61.075,69.123,63.956Zm7.035-2.8c1.271,2.967,2.289,5.848,3.221,8.73-2.882.678-5.933,1.187-9.154,1.61,1.017-1.61,2.119-3.306,3.051-5.086,1.017-1.78,1.949-3.56,2.882-5.255Zm-21.7,22.97c-2.034-2.2-3.984-4.577-5.848-7.035,1.949.085,3.9.17,5.848.17s3.9-.085,5.848-.17C58.443,79.552,56.494,81.925,54.459,84.129ZM38.694,71.415c-3.221-.424-6.272-.932-9.154-1.61.932-2.8,1.949-5.764,3.221-8.73.932,1.7,1.865,3.475,2.882,5.17,1.017,1.865,2.034,3.475,3.051,5.17ZM32.761,49.8c-1.271-2.967-2.289-5.848-3.221-8.73,2.882-.678,5.933-1.187,9.154-1.61-1.017,1.61-2.119,3.306-3.051,5.086C34.626,46.326,33.693,48.106,32.761,49.8Zm21.7-22.97c2.034,2.2,3.984,4.577,5.848,7.035-1.949-.085-3.9-.17-5.848-.17s-3.9.085-5.848.17c1.865-2.458,3.814-4.831,5.848-7.035Zm18.817,17.8-3.051-5.086c3.221.424,6.272.932,9.154,1.61-.932,2.8-1.949,5.764-3.221,8.73C75.225,48.106,74.293,46.326,73.276,44.631ZM27.082,30.9C25.641,22,26.828,15.728,30.3,13.694a5.726,5.726,0,0,1,2.967-.763c5.086,0,11.443,4.153,17.8,10.425a111.419,111.419,0,0,0-8.815,11.019,115.236,115.236,0,0,0-13.985,2.119c-.509-1.949-.848-3.814-1.187-5.594ZM6.147,55.48c0-3.984,4.831-8.222,13.307-11.358a50.818,50.818,0,0,1,5.425-1.78,123.543,123.543,0,0,0,5.086,13.222A106.806,106.806,0,0,0,24.878,68.7c-11.7-3.39-18.732-8.476-18.732-13.222ZM30.3,97.267c-3.475-2.034-4.662-8.306-3.221-17.206a51.039,51.039,0,0,1,1.187-5.594,100.7,100.7,0,0,0,13.985,2.119A122.3,122.3,0,0,0,51.069,87.6C44.8,93.792,38.44,98.03,33.27,98.03a5.726,5.726,0,0,1-2.967-.763ZM81.837,80.061c1.441,8.9.254,15.172-3.221,17.206a5.726,5.726,0,0,1-2.967.763c-5.086,0-11.443-4.153-17.8-10.425a111.419,111.419,0,0,0,8.815-11.019A115.234,115.234,0,0,0,80.65,74.467C81.159,76.416,81.5,78.281,81.837,80.061Zm7.628-13.222a50.818,50.818,0,0,1-5.425,1.78A123.544,123.544,0,0,0,78.955,55.4,106.806,106.806,0,0,0,84.04,42.258c11.7,3.39,18.732,8.476,18.732,13.222C102.772,59.464,97.856,63.7,89.465,66.838Z"/></g></svg>