<svg xmlns="http://www.w3.org/2000/svg" width="174.704" height="50" viewBox="0 0 174.704 50"><defs><style>.a{fill:#8fffff;}.b{fill:#1a4e89;}.c{fill:#293038;}</style></defs><path class="a" d="M-575,575v50h12.5V587.5H-550V575Z" transform="translate(575 -575)"/><path class="b" d="M-325,575h25v50h-25V612.5h12.5v-25H-325Z" transform="translate(350 -575)"/><path class="c" d="M9.264-16.8H1.992V0H5.88V-4.632H9.264c4.488,0,7.3-2.328,7.3-6.072C16.56-14.472,13.752-16.8,9.264-16.8Zm-.216,9H5.88v-5.832H9.048c2.376,0,3.576,1.08,3.576,2.928C12.624-8.88,11.424-7.8,9.048-7.8Zm13.584-3.408v-1.7H19.056V0H22.8V-6.1c0-2.472,1.368-3.6,3.432-3.6.288,0,.528.024.84.048V-13.1A5.211,5.211,0,0,0,22.632-11.208Zm12.7,11.4c4.1,0,7.08-2.76,7.08-6.648S39.432-13.1,35.328-13.1s-7.1,2.76-7.1,6.648S31.224.192,35.328.192Zm0-3.072a3.276,3.276,0,0,1-3.312-3.576,3.276,3.276,0,0,1,3.312-3.576,3.259,3.259,0,0,1,3.288,3.576A3.259,3.259,0,0,1,35.328-2.88ZM54.672-12.912v1.656A5.183,5.183,0,0,0,50.4-13.1a6.147,6.147,0,0,0-6.456,6.24A6.147,6.147,0,0,0,50.4-.624a5.316,5.316,0,0,0,4.08-1.608v.552c0,2.328-1.152,3.528-3.792,3.528A7.717,7.717,0,0,1,46.128.384L44.64,3.072a10.637,10.637,0,0,0,6.336,1.776c4.656,0,7.248-2.208,7.248-7.008V-12.912ZM51.144-3.7a3.155,3.155,0,0,1-3.408-3.168,3.155,3.155,0,0,1,3.408-3.168,3.135,3.135,0,0,1,3.384,3.168A3.135,3.135,0,0,1,51.144-3.7ZM78.24-13.1a5.806,5.806,0,0,0-4.656,2.112A4.82,4.82,0,0,0,69.336-13.1a5.229,5.229,0,0,0-4.056,1.68v-1.488H61.7V0h3.744V-6.48c0-2.3,1.176-3.384,2.832-3.384,1.56,0,2.448.96,2.448,3.048V0h3.744V-6.48c0-2.3,1.176-3.384,2.856-3.384,1.512,0,2.448.96,2.448,3.048V0H83.52V-7.392C83.52-11.328,81.312-13.1,78.24-13.1Zm13.848,0a9.926,9.926,0,0,0-5.568,1.56l1.344,2.616a6.208,6.208,0,0,1,3.72-1.2c2.016,0,2.976.936,2.976,2.544H91.584C87.648-7.584,86.04-6,86.04-3.72c0,2.232,1.8,3.912,4.824,3.912,1.9,0,3.24-.624,3.936-1.8V0h3.5V-7.368C98.3-11.28,96.024-13.1,92.088-13.1ZM91.8-2.328c-1.32,0-2.112-.624-2.112-1.56,0-.864.552-1.512,2.3-1.512H94.56v1.32A2.759,2.759,0,0,1,91.8-2.328Zm13.464-8.88v-1.7h-3.576V0h3.744V-6.1c0-2.472,1.368-3.6,3.432-3.6.288,0,.528.024.84.048V-13.1A5.211,5.211,0,0,0,105.264-11.208Z" transform="translate(65 34)"/></svg>